<?xml version="1.0" encoding="utf-8"?>
<!-- Generator: Adobe Illustrator 16.0.4, SVG Export Plug-In . SVG Version: 6.00 Build 0)  -->
<!DOCTYPE svg PUBLIC "-//W3C//DTD SVG 1.1//EN" "http://www.w3.org/Graphics/SVG/1.1/DTD/svg11.dtd">
<svg version="1.1" id="Layer_1" xmlns="http://www.w3.org/2000/svg" xmlns:xlink="http://www.w3.org/1999/xlink" x="0px" y="0px"
	 width="65px" height="65px" viewBox="0 0 65 65" enable-background="new 0 0 65 65" xml:space="preserve">
<title>Group 7</title>
<desc>Created with Sketch.</desc>
<g>
	<path fill="#5798D9" d="M32.5,0.185C14.682,0.185,0.185,14.68,0.185,32.5c0,17.819,14.497,32.315,32.315,32.315
		c17.817,0,32.315-14.496,32.315-32.315C64.815,14.68,50.317,0.185,32.5,0.185z M32.5,60.507c-15.442,0-28.007-12.564-28.007-28.007
		S17.058,4.493,32.5,4.493S60.507,17.058,60.507,32.5S47.942,60.507,32.5,60.507z"/>
	<path fill="#5798D9" d="M46.717,29.986H35.012V18.284c0.002-1.389-1.125-2.514-2.511-2.514c-1.389,0-2.513,1.124-2.513,2.514
		v11.701H18.28c-1.386,0-2.513,1.126-2.513,2.514c0.003,1.386,1.127,2.511,2.513,2.513h11.707v11.704
		c0,1.39,1.126,2.513,2.513,2.513s2.513-1.123,2.513-2.513V35.012h11.703c1.39,0,2.513-1.127,2.513-2.513
		C49.229,31.113,48.105,29.986,46.717,29.986z"/>
</g>
</svg>
