<?xml version="1.0" encoding="utf-8"?>
<svg version="1.1" id="Layer_1" shape-rendering="geometricPrecision"
	 xmlns="http://www.w3.org/2000/svg" xmlns:xlink="http://www.w3.org/1999/xlink" width="100%" height="100%" x="0px" y="0px" viewBox="0 0 300 25"
	 style="enable-background:new 0 0 300 25;" xml:space="preserve">
<style type="text/css">
	.st0{fill:none;}
	.st1{fill:#FFFFFF;}
	.st2{fill:#5683AF;}
	.st3{fill:#607183;}
	.st4{fill:#5482AE;}
	.st5{fill:none;stroke:#5482AE;stroke-width:1.75;}
	.st6{fill:#5CB85C;}
	.st7{fill:#5CB85C;stroke:#5CB85C;stroke-width:0.25;}
	.st8{fill:#D9534F;}
</style>
<rect x="150" class="st0" width="25" height="25"/>
<rect x="25" class="st0" width="25" height="25"/>
<rect x="75" class="st0" width="25" height="25"/>
<rect x="225" class="st0" width="25" height="25"/>
<g>
	<rect x="200" class="st0" width="25" height="25"/>
	<g>
		<g id="Icon_x2F_Sensor_x2F_Optical_x2F_Outline_2_">
			<g id="Icon_x2F_Sensor_x2F_Wifi_3_" transform="translate(2.000000, 2.000000)">
				<g id="Group-23_2_">
					<circle id="Oval_3_" class="st1" cx="210.5" cy="10.5" r="10.5"/>
					<g>
						<path class="st2" d="M210.5-0.9c-6.3,0-11.4,5.1-11.4,11.4c0,6.3,5.1,11.4,11.4,11.4s11.4-5.1,11.4-11.4
							C221.9,4.2,216.8-0.9,210.5-0.9z M210.5,20.1c-5.3,0-9.6-4.3-9.6-9.6s4.3-9.6,9.6-9.6s9.6,4.3,9.6,9.6S215.8,20.1,210.5,20.1z
							"/>
						<path class="st2" d="M217.5,9.8l-4.2-4.2c-0.4-0.4-1-0.4-1.4,0c-0.4,0.4-0.4,1,0,1.4l2.5,2.5h-10.2c-0.6,0-1,0.4-1,1
							c0,0.6,0.4,1,1,1h10.2l-2.5,2.5c-0.4,0.4-0.4,1,0,1.4c0.2,0.2,0.5,0.3,0.7,0.3s0.5-0.1,0.7-0.3l4.2-4.2
							C217.8,10.8,217.8,10.2,217.5,9.8z"/>
						<path class="st2" d="M208,5c0.4,0,0.8-0.3,0.8-0.8v-1c0-0.4-0.3-0.8-0.8-0.8s-0.8,0.3-0.8,0.8v1C207.2,4.7,207.6,5,208,5z"/>
						<path class="st2" d="M208,8.8c0.4,0,0.8-0.3,0.8-0.8V7c0-0.4-0.3-0.8-0.8-0.8s-0.8,0.3-0.8,0.8v1C207.2,8.4,207.6,8.8,208,8.8
							z"/>
						<path class="st2" d="M208,16c-0.4,0-0.8,0.3-0.8,0.8v1c0,0.4,0.3,0.8,0.8,0.8s0.8-0.3,0.8-0.8v-1C208.7,16.3,208.4,16,208,16z
							"/>
						<path class="st2" d="M208,12.3c-0.4,0-0.8,0.3-0.8,0.8v1c0,0.4,0.3,0.8,0.8,0.8s0.8-0.3,0.8-0.8v-1
							C208.7,12.6,208.4,12.3,208,12.3z"/>
					</g>
				</g>
			</g>
		</g>
	</g>
</g>
<rect x="125" class="st0" width="25" height="25"/>
<g>
	<rect class="st0" width="25" height="25"/>
	<g id="Icon_x2F_Back_x2F_Large-Copy_3_">
		<path class="st3" d="M9.8,22.8c-0.2,0-0.4-0.1-0.6-0.2c-0.6-0.4-0.8-1.1-0.4-1.7l5.1-8.4L8.7,4.2C8.3,3.6,8.5,2.8,9.1,2.4
			c0.6-0.4,1.4-0.2,1.7,0.4l5.5,9c0.2,0.4,0.2,0.9,0,1.3l-5.5,9C10.6,22.5,10.2,22.8,9.8,22.8z"/>
	</g>
</g>
<g>
	<rect x="275" class="st0" width="25" height="25"/>
</g>
<g id="Icon_x2F_Group_x2F_Mono">
	<g id="Group-17" transform="translate(0.000000, 2.750000)">
		<path id="Stroke-15" class="st1" d="M131,7.3l0-2.7c0,0,0-0.4,0.2-0.5l6-3.3c0,0,0.1-0.1,0.3-0.1c0.1,0,0.2,0,0.4,0.1
			c0.1,0,0.2,0.1,0.3,0.1c0.1,0,0.2,0.1,0.4,0.1c0.1,0,0.3,0.1,0.4,0.1c0.1,0.1,0.3,0.1,0.4,0.2c0.1,0.1,0.3,0.1,0.5,0.2
			c0.2,0.1,0.3,0.2,0.5,0.2c0.2,0.1,0.3,0.2,0.5,0.3c0.2,0.1,0.4,0.2,0.5,0.3c0.2,0.1,0.4,0.2,0.5,0.4c0.2,0.1,0.4,0.3,0.5,0.4
			c0.2,0.1,0.4,0.3,0.5,0.5c0.3,0.3,0.4,0.3,0.4,0.6l0,2.5c0.1,0,0.4,0.1,0.5,0.2c0.1,0,0.2,0.1,0.4,0.1c0.1,0,0.3,0.1,0.4,0.2
			c0.1,0.1,0.3,0.1,0.4,0.2c0.1,0.1,0.3,0.1,0.5,0.2c0.2,0.1,0.3,0.2,0.5,0.2s0.3,0.2,0.5,0.3c0.2,0.1,0.4,0.2,0.5,0.3
			c0.2,0.1,0.4,0.2,0.5,0.4c0.2,0.1,0.4,0.3,0.5,0.4c0.2,0.1,0.4,0.3,0.5,0.4c0.3,0.3,0.4,0.4,0.4,0.6l0,2.9c0,0,0,0.1-0.2,0.2
			l-5.5,3.4c-0.2,0.1-0.4,0.2-0.6,0.2c-0.1,0-0.3,0-0.4-0.1l-5.2-3l-4.7,2.9c-0.2,0.1-0.4,0.2-0.6,0.2c-0.1,0-0.3,0-0.4-0.1
			l-5.6-3.2c0,0-0.1-0.1-0.1-0.2l0-2.8c0,0,0-0.4,0.2-0.5L131,7.3z"/>
		<path class="st4" d="M150,10.3c0-0.6-0.3-0.9-0.7-1.2c-0.2-0.2-0.4-0.3-0.6-0.5c-0.2-0.2-0.4-0.3-0.6-0.4
			c-0.2-0.1-0.4-0.3-0.6-0.4c-0.2-0.1-0.4-0.2-0.6-0.3c-0.2-0.1-0.4-0.2-0.6-0.3c-0.2-0.1-0.4-0.2-0.5-0.3l-0.5-0.2
			c-0.2-0.1-0.3-0.1-0.5-0.2c-0.2-0.1-0.3-0.1-0.4-0.2c-0.1,0-0.2-0.1-0.3-0.1l0-1.9c0-0.6-0.3-0.9-0.7-1.2
			c-0.2-0.2-0.4-0.3-0.6-0.5c-0.2-0.2-0.4-0.3-0.6-0.4c-0.2-0.1-0.4-0.3-0.6-0.4c-0.2-0.1-0.4-0.2-0.6-0.3c-0.2-0.1-0.4-0.2-0.6-0.3
			c-0.2-0.1-0.4-0.2-0.5-0.3c-0.2-0.1-0.3-0.2-0.5-0.2c-0.1-0.1-0.3-0.1-0.5-0.2c-0.1-0.1-0.3-0.1-0.4-0.2c-0.1,0-0.2-0.1-0.4-0.1
			l-0.4-0.1c-0.7-0.2-1.3,0-1.4,0.1l-5.9,3.2c-0.6,0.3-0.7,0.9-0.7,1.3l0,2.2l-4.5,2.5c-0.6,0.3-0.7,0.9-0.7,1.3l0,2.8
			c0,0.5,0.3,0.8,0.5,0.9l5.7,3.3c0.6,0.3,1.3,0.2,1.8-0.1l4.3-2.6l4.8,2.7c0.2,0.1,0.5,0.2,0.8,0.2c0.4,0,0.7-0.1,1-0.3l5.5-3.4
			c0.4-0.3,0.6-0.6,0.6-0.9L150,10.3z M144.4,8c0.1,0,0.3,0.1,0.4,0.2l0.5,0.2c0.2,0.1,0.3,0.1,0.5,0.2c0.2,0.1,0.3,0.2,0.5,0.3
			c0.2,0.1,0.3,0.2,0.5,0.3c0.2,0.1,0.3,0.2,0.5,0.3c0.2,0.1,0.3,0.2,0.5,0.4c0.1,0.1,0.3,0.2,0.4,0.4l-5.1,2.9
			c-0.1,0-0.2,0.1-0.3,0.1c-0.2-0.2-0.4-0.3-0.5-0.5c0,0-0.1-0.1-0.1-0.1c-0.2-0.1-0.3-0.2-0.5-0.4c-0.2-0.1-0.4-0.2-0.5-0.3
			c-0.1-0.1-0.3-0.2-0.4-0.3l-0.7-0.4c-0.2-0.1-0.4-0.2-0.6-0.3l-0.5-0.2c-0.2-0.1-0.3-0.1-0.5-0.2l-0.2-0.1c0,0,0,0,0,0l4.9-3
			c0,0,0.1,0,0.2,0.1c0.1,0,0.2,0.1,0.3,0.1c0.1,0,0.2,0.1,0.3,0.1C144.1,7.9,144.2,8,144.4,8z M131.9,6.8l0-1.3l0.2,0.1
			c0.1,0,0.2,0.1,0.3,0.1l0.1,0.1c0.1,0.1,0.3,0.1,0.4,0.2c0.1,0.1,0.3,0.1,0.5,0.2c0.1,0.1,0.3,0.1,0.4,0.2l0.1,0.1
			c0.2,0.1,0.3,0.2,0.5,0.3c0.1,0.1,0.2,0.1,0.4,0.2l0.2,0.1c0.2,0.1,0.3,0.2,0.5,0.3c0.2,0.1,0.3,0.2,0.5,0.4
			c0.2,0.1,0.3,0.3,0.5,0.4c0.1,0.1,0.2,0.2,0.3,0.2l0,1.3L131.9,6.8z M142.6,5.4l0,1.3l0,0.1l-4.8,3l0-1.6c0.1,0,0.2-0.1,0.2-0.1
			L142.6,5.4z M137.5,1.7c0,0,0.1,0,0.2,0l0.7,0.2c0.1,0,0.2,0.1,0.4,0.1c0.1,0,0.2,0.1,0.4,0.2c0.1,0.1,0.3,0.1,0.4,0.2
			c0.2,0.1,0.3,0.2,0.5,0.2c0.2,0.1,0.3,0.2,0.5,0.3c0.2,0.1,0.3,0.2,0.5,0.3c0.2,0.1,0.3,0.2,0.5,0.3c0.2,0.1,0.3,0.2,0.5,0.4
			c0.2,0.1,0.3,0.3,0.5,0.4l-5.1,2.8c-0.1,0-0.2,0.1-0.3,0.1c-0.2-0.2-0.4-0.3-0.5-0.4c-0.2-0.1-0.4-0.3-0.6-0.4
			c-0.2-0.1-0.4-0.2-0.6-0.4L135.2,6c-0.1-0.1-0.3-0.2-0.4-0.2c-0.2-0.1-0.4-0.2-0.5-0.3l-0.1-0.1c-0.1-0.1-0.3-0.1-0.4-0.2
			c-0.2-0.1-0.3-0.2-0.5-0.2c-0.2-0.1-0.3-0.1-0.5-0.2l-0.1-0.1c-0.1,0-0.2-0.1-0.3-0.1l-0.1,0L137.5,1.7z M131.8,7.9l4.7,2.7
			l-4.3,2.6c-0.1,0-0.2,0.1-0.3,0.1c-0.1-0.1-0.3-0.3-0.4-0.4l-0.1-0.1c-0.2-0.1-0.4-0.3-0.6-0.4c-0.2-0.1-0.4-0.3-0.6-0.4l-0.5-0.3
			c-0.2-0.1-0.4-0.2-0.5-0.3c-0.2-0.1-0.4-0.2-0.5-0.3c-0.2-0.1-0.4-0.2-0.5-0.2c-0.2-0.1-0.3-0.1-0.5-0.2l-0.4-0.2
			c-0.1,0-0.1,0-0.2-0.1L131.8,7.9z M126.7,13l0-1.6c0.1,0,0.1,0,0.2,0.1l0.4,0.2c0.1,0.1,0.3,0.1,0.5,0.2c0.1,0.1,0.3,0.1,0.5,0.2
			c0.2,0.1,0.3,0.2,0.5,0.2c0.2,0.1,0.3,0.2,0.5,0.3l0.5,0.3c0.2,0.1,0.3,0.2,0.5,0.3c0.2,0.1,0.3,0.3,0.5,0.4l0.1,0.1
			c0.1,0.1,0.3,0.2,0.4,0.3c0.1,0.1,0.2,0.2,0.3,0.2v1.6L126.7,13z M132.5,15.8v-1.6c0.1-0.1,0.2-0.1,0.3-0.1l4-2.4l0,1.6
			L132.5,15.8z M137.8,13.2l0-1.6l0.4,0.1c0.1,0.1,0.3,0.1,0.4,0.2l0.5,0.2c0.2,0.1,0.3,0.2,0.5,0.3l0.6,0.3
			c0.1,0.1,0.3,0.2,0.4,0.3c0.2,0.1,0.3,0.2,0.5,0.3c0.2,0.1,0.3,0.2,0.5,0.4c0.2,0.1,0.3,0.3,0.5,0.4c0.1,0.1,0.2,0.2,0.3,0.2v1.6
			L137.8,13.2z M143.3,15.8v-1.7c0.1-0.1,0.2-0.1,0.2-0.1l4.7-2.6l0,1.4L143.3,15.8z"/>
	</g>
</g>
<g>
	<rect x="50" class="st0" width="25" height="25"/>
	<g>
		<g id="Icon_x2F_Location_x2F_Outline_2_">
			<g id="Icon_x2F_Location_x2F_Default_2_">
				<g id="Icon_x2F_Location_x2F_Lit_2_">
					<g id="Icon_x2F_Location-Copy-10_2_">
						<path class="st1" d="M62.5,21.9l-5-10.4c-0.1-0.1-0.1-0.2-0.2-0.3l-0.1-0.3c-0.2-0.6-0.4-1.3-0.4-2.1c0-3.2,2.6-5.8,5.8-5.8
							s5.8,2.6,5.8,5.8c0,0.7-0.1,1.5-0.4,2.2L62.5,21.9L62.5,21.9L62.5,21.9L62.5,21.9z"/>
					</g>
				</g>
			</g>
		</g>
		<g id="Icon_x2F_Location_x2F_Outline">
			<g id="Icon_x2F_Location_x2F_Default">
				<g id="Icon_x2F_Location_x2F_Lit">
					<g id="Icon_x2F_Location-Copy-10">
						<path class="st4" d="M62.5,22.8c-0.5,0-0.9-0.3-1.1-0.7l-4.8-9.9c-0.1-0.1-0.2-0.3-0.2-0.5l-0.1-0.1l0-0.2
							c-0.3-0.8-0.4-1.6-0.4-2.4c0-3.7,3-6.8,6.8-6.8c3.7,0,6.8,3,6.8,6.8c0,0.9-0.2,1.7-0.5,2.5l-0.1,0.2l-5.1,10.5
							C63.4,22.6,63,22.8,62.5,22.8z M57.9,11.1c0,0.1,0.1,0.2,0.2,0.3l4.4,9.1l4.7-9.6c0.2-0.6,0.4-1.2,0.4-1.9c0-2.8-2.3-5-5-5
							c-2.8,0-5,2.3-5,5c0,0.6,0.1,1.2,0.3,1.8l0.1,0.1L57.9,11.1z"/>
						<g>
							<path class="st4" d="M62.5,5.8c-1.7,0-3.1,1.4-3.1,3.1s1.4,3.1,3.1,3.1c1.7,0,3.1-1.4,3.1-3.1S64.2,5.8,62.5,5.8z M62.5,10.6
								c-0.9,0-1.6-0.7-1.6-1.6s0.7-1.6,1.6-1.6s1.6,0.7,1.6,1.6S63.4,10.6,62.5,10.6z"/>
						</g>
					</g>
				</g>
			</g>
		</g>
	</g>
</g>
<g id="Icon_x2F_Insight_x2F_Outline_1_">
	<path id="Rectangle_1_" class="st1" d="M80.4,3.4h14.2c1.1,0,2,0.9,2,2v14.2c0,1.1-0.9,2-2,2H80.4c-1.1,0-2-0.9-2-2V5.4
		C78.4,4.3,79.3,3.4,80.4,3.4z"/>
</g>
<g id="Icon_x2F_Insight_x2F_Outline">
	<path id="Shape_1_" class="st4" d="M82.3,10.6h2.2v7.6h-2.2V10.6z M86.7,7.3h2.2v10.8h-2.2V7.3z M91,13.8h2.2v4.3H91V13.8z"/>
	<path id="Rectangle" class="st5" d="M80.4,3.4h14.2c1.1,0,2,0.9,2,2v14.2c0,1.1-0.9,2-2,2H80.4c-1.1,0-2-0.9-2-2V5.4
		C78.4,4.3,79.3,3.4,80.4,3.4z"/>
</g>
<rect x="100" class="st0" width="25" height="25"/>
<g id="Icon_x2F_Insight_x2F_Outline_3_">
	<path id="Rectangle_3_" class="st1" d="M105.4,3.4h14.2c1.1,0,2,0.9,2,2v14.2c0,1.1-0.9,2-2,2h-14.2c-1.1,0-2-0.9-2-2V5.4
		C103.4,4.3,104.3,3.4,105.4,3.4z"/>
</g>
<g id="Icon_x2F_Insight_x2F_Outline_2_">
	<path id="Rectangle_2_" class="st5" d="M105.4,3.4h14.2c1.1,0,2,0.9,2,2v14.2c0,1.1-0.9,2-2,2h-14.2c-1.1,0-2-0.9-2-2V5.4
		C103.4,4.3,104.3,3.4,105.4,3.4z"/>
</g>
<circle id="path-1_6_" class="st1" cx="237.5" cy="12.5" r="10.8"/>
<path class="st6" d="M237.5,24.2c-6.4,0-11.7-5.2-11.7-11.7s5.2-11.7,11.7-11.7s11.7,5.2,11.7,11.7
	C249.2,18.9,243.9,24.2,237.5,24.2z M237.5,2.6c-5.5,0-9.9,4.5-9.9,9.9c0,5.5,4.5,9.9,9.9,9.9s9.9-4.5,9.9-9.9S243,2.6,237.5,2.6z"
	/>
<path class="st7" d="M235.9,19.2c-0.2,0-0.5-0.1-0.6-0.3l-3.7-3.8c-0.4-0.4-0.3-0.9,0-1.3c0.4-0.3,0.9-0.3,1.3,0l2.9,2.9l5.6-9.2
	c0.3-0.4,0.8-0.6,1.2-0.3c0.4,0.3,0.6,0.8,0.3,1.2l-6.2,10.2c-0.1,0.2-0.4,0.4-0.7,0.4C236,19.1,235.9,19.2,235.9,19.2z"/>
<g>
	<rect x="250" class="st0" width="25" height="25"/>
	<g>
		<circle id="path-1_8_" class="st1" cx="262.5" cy="12.5" r="10.8"/>
		<path class="st8" d="M262.5,24.2c-6.4,0-11.7-5.2-11.7-11.7s5.2-11.7,11.7-11.7s11.7,5.2,11.7,11.7
			C274.2,18.9,268.9,24.2,262.5,24.2z M262.5,2.6c-5.5,0-9.9,4.5-9.9,9.9c0,5.5,4.5,9.9,9.9,9.9s9.9-4.5,9.9-9.9S268,2.6,262.5,2.6z
			"/>
	</g>
	<path class="st8" d="M263.8,12.5l3.9-4.1c0.4-0.4,0.4-1,0-1.4c-0.4-0.4-1-0.4-1.4,0l-3.8,4l-3.8-4c-0.4-0.4-1-0.4-1.4,0
		s-0.4,1,0,1.4l3.9,4.1l0,0l0,0l-3.9,4.1c-0.4,0.4-0.4,1,0,1.4c0.2,0.2,0.4,0.3,0.7,0.3c0.3,0,0.5-0.1,0.7-0.3l3.8-4l3.8,4
		c0.2,0.2,0.5,0.3,0.7,0.3c0.2,0,0.5-0.1,0.7-0.3c0.4-0.4,0.4-1,0-1.4L263.8,12.5z"/>
</g>
<g>
	<rect x="175" class="st0" width="25" height="25"/>
	<g>
		<circle id="Oval_4_" class="st1" cx="187.5" cy="12.5" r="10.5"/>
		<g>
			<path class="st2" d="M187.5,1.1c-6.3,0-11.4,5.1-11.4,11.4c0,6.3,5.1,11.4,11.4,11.4c6.3,0,11.4-5.1,11.4-11.4
				C198.9,6.2,193.8,1.1,187.5,1.1z M187.5,22.1c-5.3,0-9.6-4.3-9.6-9.6s4.3-9.6,9.6-9.6c5.3,0,9.6,4.3,9.6,9.6
				S192.8,22.1,187.5,22.1z"/>
			<path class="st2" d="M187.5,16.4c-0.6,0-1.1,0.5-1.1,1.1s0.5,1.1,1.1,1.1s1.1-0.5,1.1-1.1S188.1,16.4,187.5,16.4z"/>
			<path class="st2" d="M194.9,10.9c-0.3-0.5-0.6-0.8-1-1.2c-0.8-0.9-1.8-1.5-2.9-2c-2.2-1-4.8-1-7.1,0c-1.1,0.5-2.1,1.1-2.9,2
				c-0.3,0.3-0.7,0.7-1,1.2c-0.3,0.4-0.2,0.9,0.2,1.2c0.4,0.3,0.9,0.2,1.2-0.2c0.3-0.4,0.5-0.7,0.8-1c0.7-0.7,1.5-1.2,2.3-1.6
				c1.8-0.8,3.9-0.8,5.7,0c0.9,0.4,1.7,0.9,2.3,1.6c0.3,0.3,0.5,0.6,0.8,1c0.2,0.2,0.4,0.4,0.7,0.4c0.2,0,0.3-0.1,0.5-0.2
				C195.1,11.8,195.2,11.3,194.9,10.9z"/>
			<path class="st2" d="M192.2,12.2c-0.6-0.7-1.3-1.2-2.1-1.6c-1.6-0.8-3.5-0.8-5.2,0c-0.8,0.4-1.5,0.9-2.1,1.6
				c-0.2,0.3-0.5,0.6-0.7,0.9c-0.3,0.4-0.1,0.9,0.3,1.2c0.1,0.1,0.3,0.1,0.5,0.1c0.3,0,0.6-0.1,0.7-0.4c0.2-0.3,0.4-0.5,0.5-0.7
				c0.4-0.5,1-0.9,1.5-1.1c1.2-0.5,2.5-0.6,3.7,0c0.6,0.3,1.1,0.7,1.5,1.1c0.2,0.2,0.3,0.4,0.5,0.7c0.3,0.4,0.8,0.5,1.2,0.3
				c0.4-0.3,0.5-0.8,0.3-1.2C192.6,12.8,192.4,12.5,192.2,12.2z"/>
			<path class="st2" d="M189.1,13.7c-1-0.6-2.3-0.6-3.3,0c-0.5,0.3-0.9,0.7-1.2,1.1c-0.3,0.4-0.2,0.9,0.2,1.2
				c0.4,0.3,0.9,0.2,1.2-0.2c0.2-0.3,0.5-0.5,0.7-0.7c0.5-0.3,1-0.3,1.5,0c0.3,0.2,0.5,0.4,0.7,0.7c0.2,0.2,0.4,0.4,0.7,0.4
				c0.2,0,0.4-0.1,0.5-0.2c0.4-0.3,0.5-0.8,0.2-1.2C190,14.4,189.6,14,189.1,13.7z"/>
		</g>
	</g>
</g>
<g>
	<path id="Stroke-2_9_" class="st1" d="M30.7,22.5v-7.7c0-1.8,1.4-3.2,3.2-3.2h7.3c1.8,0,3.2,1.4,3.2,3.2v7.7H30.7z"/>
	<path class="st4" d="M45.2,23.4H29.8v-8.6c0-2.2,1.8-4.1,4.1-4.1h7.3c2.2,0,4.1,1.8,4.1,4.1V23.4z M31.6,21.6h11.9v-6.9
		c0-1.3-1-2.3-2.3-2.3h-7.3c-1.3,0-2.3,1-2.3,2.3C31.6,14.8,31.6,21.6,31.6,21.6z"/>
	<g>
		<circle class="st1" cx="37.5" cy="6.1" r="3.5"/>
		<path class="st4" d="M37.5,10.6c-2.5,0-4.5-2-4.5-4.5c0-2.5,2-4.5,4.5-4.5c2.5,0,4.5,2,4.5,4.5C42,8.6,40,10.6,37.5,10.6z
			 M37.5,3.4c-1.5,0-2.8,1.2-2.8,2.8s1.2,2.8,2.8,2.8s2.8-1.2,2.8-2.8C40.3,4.6,39,3.4,37.5,3.4z"/>
	</g>
</g>
<g id="Group-5_2_" transform="translate(0.000000, 0.279766)">
	<path id="Fill-3_1_" class="st1" d="M163.7,2.7c0.2,0.1,0.4,0.1,0.6,0.2c0.2,0.1,0.4,0.1,0.7,0.2c0.2,0.1,0.5,0.2,0.8,0.3
		c0.3,0.1,0.5,0.2,0.8,0.3c0.3,0.1,0.6,0.3,0.9,0.4c0.3,0.1,0.6,0.3,0.9,0.5c0.3,0.2,0.6,0.3,1,0.5c0.3,0.2,0.7,0.4,1,0.6
		s0.7,0.4,1,0.7c0.3,0.2,0.7,0.5,1,0.8c0.3,0.3,0.7,0.5,1,0.8c0.5,0.5,0.7,0.7,0.7,1.1l0,5.4c0,0,0,0.2-0.3,0.4l-10.4,6.3
		c-0.4,0.2-0.7,0.3-1.1,0.3c-0.3,0-0.5-0.1-0.7-0.2l-10.5-6.1c0,0-0.2-0.1-0.2-0.4l0-5.2c0,0-0.1-0.7,0.3-0.9l11.2-6.1
		c0,0,0.2-0.1,0.6-0.1C163.1,2.6,163.4,2.6,163.7,2.7z"/>
</g>
<path class="st4" d="M175,9.3c0-0.8-0.4-1.1-0.9-1.6l-0.1-0.1c-0.3-0.3-0.7-0.6-1-0.9c-0.3-0.3-0.7-0.5-1-0.8
	c-0.3-0.2-0.7-0.5-1-0.7c-0.3-0.2-0.7-0.4-1-0.6c-0.3-0.2-0.7-0.4-1-0.6c-0.3-0.2-0.6-0.3-1-0.5c-0.3-0.1-0.6-0.3-0.9-0.4
	c-0.3-0.1-0.6-0.2-0.9-0.3c-0.3-0.1-0.5-0.2-0.8-0.3c-0.3-0.1-0.5-0.2-0.7-0.2c-0.2-0.1-0.4-0.1-0.6-0.2c-0.4-0.1-0.7-0.1-1-0.1
	c-0.6,0-0.9,0.2-1,0.2l-11.1,6.1c-0.7,0.3-0.9,1.2-0.8,1.7l0,5.3c0,0.6,0.4,1,0.7,1.1l10.6,6.1c0.3,0.2,0.7,0.3,1.1,0.3
	c0.5,0,1.1-0.2,1.5-0.5l10.4-6.3c0.6-0.4,0.7-0.8,0.7-1.1L175,9.3z M162.9,3.7c-0.1,0-0.1,0.1-0.1,0.1c0,0,0.2-0.1,0.7,0.1
	c0.2,0,0.3,0.1,0.5,0.2c0.2,0.1,0.4,0.1,0.7,0.2c0.2,0.1,0.5,0.2,0.7,0.3c0.3,0.1,0.5,0.2,0.8,0.3c0.3,0.1,0.6,0.2,0.9,0.4
	c0.3,0.1,0.6,0.3,0.9,0.4c0.3,0.2,0.6,0.3,0.9,0.5c0.3,0.2,0.6,0.4,1,0.6c0.3,0.2,0.6,0.4,1,0.7c0.3,0.2,0.6,0.5,1,0.7
	s0.6,0.5,0.9,0.8l0.1,0.1c0.2,0.1,0.3,0.3,0.3,0.3l0,0.5c0,0,0,0,0,0l-10.1,5.7l-0.1,0.1c-0.6,0.3-0.7,0.3-0.8,0.2
	c-0.3-0.3-0.7-0.6-1-0.8c-0.3-0.3-0.7-0.5-1-0.7c-0.3-0.2-0.7-0.5-1-0.7c-0.3-0.2-0.7-0.4-1-0.6c-0.3-0.2-0.7-0.4-1-0.5
	c-0.3-0.2-0.7-0.3-1-0.5c-0.3-0.1-0.6-0.3-0.9-0.4c-0.3-0.1-0.6-0.3-0.9-0.4c-0.3-0.1-0.6-0.2-0.8-0.3c-0.3-0.1-0.5-0.2-0.7-0.3
	l-0.2-0.1c-0.2-0.1-0.3-0.1-0.4-0.1c-0.1,0-0.2-0.1-0.2-0.1c-0.1-0.1-0.2-0.2-0.3-0.3l0-0.1c0,0,0-0.1,0-0.1L162.9,3.7z M151.8,14.9
	l0-3.2c0,0,0,0,0.1,0c0.1,0,0.3,0.1,0.4,0.1l0.2,0.1c0.2,0.1,0.4,0.1,0.7,0.2c0.2,0.1,0.5,0.2,0.8,0.3c0.3,0.1,0.5,0.2,0.8,0.3
	c0.3,0.1,0.6,0.3,0.9,0.4c0.3,0.1,0.6,0.3,0.9,0.4c0.3,0.2,0.6,0.3,1,0.5c0.3,0.2,0.6,0.4,1,0.6c0.3,0.2,0.6,0.4,1,0.6
	c0.3,0.2,0.6,0.5,1,0.7c0.3,0.2,0.6,0.5,0.9,0.7c0.1,0.1,0.3,0.2,0.4,0.3c0,0,0,0,0,0l0,3.4c0,0,0,0,0,0.1L151.8,14.9z M163,20.7
	c0,0-0.1,0-0.1,0.1c0-0.1,0-0.1,0-0.2l0-3.3c0.4-0.1,0.8-0.3,1-0.5l9.4-5.3l0,2.9L163,20.7z"/>
<path class="st4" d="M113.7,19.4h-2.4c-0.6,0-1-0.4-1.2-0.9l-0.2-1.2c-0.1-0.1-0.2-0.1-0.3-0.2l-1,0.4c-0.6,0.2-1.1,0-1.4-0.5
	l-1.2-2.1c-0.3-0.5-0.2-1.1,0.2-1.5l0.9-0.7c0-0.1,0-0.1,0-0.2c0-0.1,0-0.1,0-0.2l-0.9-0.7c-0.5-0.4-0.6-1.1-0.3-1.5l1.2-2.1
	c0.3-0.5,0.9-0.7,1.4-0.5l1.1,0.4c0.1-0.1,0.2-0.1,0.3-0.2l0.2-1.1c0.1-0.6,0.6-1,1.2-1h2.4c0.6,0,1,0.4,1.2,0.9l0.2,1.2
	c0.1,0.1,0.2,0.1,0.3,0.2l1.1-0.4c0.6-0.2,1.2,0,1.4,0.5l1.2,2.1c0.3,0.5,0.2,1.1-0.3,1.5l-0.9,0.7c0,0.1,0,0.1,0,0.2
	c0,0.1,0,0.1,0,0.2l0.9,0.7c0.5,0.4,0.6,1.1,0.3,1.5l-1.2,2c-0.3,0.5-0.9,0.7-1.4,0.5l-1.1-0.4c-0.1,0.1-0.2,0.1-0.3,0.2l-0.2,1.1
	C114.8,19,114.3,19.4,113.7,19.4z M111.8,17.6h1.4l0.2-1.6l0.5-0.2c0.3-0.1,0.6-0.3,0.8-0.5l0.4-0.3l1.5,0.6l0.7-1.2l-1.3-1l0.1-0.5
	c0-0.1,0-0.3,0-0.4c0-0.2,0-0.3,0-0.5l-0.1-0.5l1.3-1l-0.7-1.2l-1.5,0.6l-0.4-0.3c-0.3-0.2-0.5-0.4-0.8-0.5L113.4,9l-0.2-1.6h-1.4
	L111.6,9l-0.5,0.2c-0.3,0.1-0.6,0.3-0.8,0.5l-0.4,0.3l-1.5-0.6l-0.7,1.2l1.3,1l-0.1,0.5c0,0.2,0,0.3,0,0.5c0,0.2,0,0.3,0,0.5l0,0.5
	l-0.4,0.3l-0.9,0.7l0.7,1.2l1.5-0.6l0.4,0.3c0.3,0.2,0.5,0.4,0.8,0.5l0.5,0.2L111.8,17.6z M112.5,15.1c-1.4,0-2.6-1.2-2.6-2.6
	c0-1.4,1.2-2.6,2.6-2.6s2.6,1.2,2.6,2.6C115.1,13.9,113.9,15.1,112.5,15.1z M112.5,11.7c-0.5,0-0.8,0.4-0.8,0.8
	c0,0.5,0.4,0.8,0.8,0.8c0.5,0,0.8-0.4,0.8-0.8C113.3,12,113,11.7,112.5,11.7z"/>
<path class="st3" d="M289.3,12.5l7.1-7.1c0.5-0.5,0.5-1.3,0-1.8s-1.3-0.5-1.8,0l-7.1,7.1l-7.1-7.1c-0.5-0.5-1.3-0.5-1.8,0
	s-0.5,1.3,0,1.8l7.1,7.1l-7.1,7.1c-0.5,0.5-0.5,1.3,0,1.8c0.2,0.2,0.6,0.4,0.9,0.4s0.6-0.1,0.9-0.4l7.1-7.1l7.1,7.1
	c0.2,0.2,0.6,0.4,0.9,0.4s0.6-0.1,0.9-0.4c0.5-0.5,0.5-1.3,0-1.8L289.3,12.5z"/>
</svg>
