<?xml version="1.0" encoding="utf-8"?>
<!-- Generator: Adobe Illustrator 16.0.4, SVG Export Plug-In . SVG Version: 6.00 Build 0)  -->
<!DOCTYPE svg PUBLIC "-//W3C//DTD SVG 1.1//EN" "http://www.w3.org/Graphics/SVG/1.1/DTD/svg11.dtd">
<svg version="1.1" id="Layer_1" xmlns="http://www.w3.org/2000/svg" xmlns:xlink="http://www.w3.org/1999/xlink" x="0px" y="0px"
	 width="40px" height="80px" viewBox="0 0 40 80" enable-background="new 0 0 40 80" xml:space="preserve">
<title>Group 8</title>
<desc>Created with Sketch.</desc>
<path id="Fill-1" fill="#A5A5A5" d="M16.852,10.575c0,1.747,1.417,3.164,3.164,3.164c1.748,0,3.164-1.417,3.164-3.164
	c0-1.748-1.416-3.164-3.164-3.164C18.268,7.411,16.852,8.827,16.852,10.575"/>
<path id="Fill-3" fill="#A5A5A5" d="M5.028,54.121c1.15,0,2.082-0.932,2.082-2.081V4.163h25.812V52.04
	c0,1.149,0.932,2.081,2.081,2.081s2.081-0.932,2.081-2.081V2.082C37.084,0.932,36.152,0,35.003,0H5.028
	C3.878,0,2.946,0.932,2.946,2.082V52.04C2.946,53.189,3.878,54.121,5.028,54.121"/>
<defs>
	<filter id="Adobe_OpacityMaskFilter" filterUnits="userSpaceOnUse" x="0" y="14.744" width="39.998" height="59.361">
		<feColorMatrix  type="matrix" values="1 0 0 0 0  0 1 0 0 0  0 0 1 0 0  0 0 0 1 0"/>
	</filter>
</defs>
<mask maskUnits="userSpaceOnUse" x="0" y="14.744" width="39.998" height="59.361" id="mask-2">
	<g filter="url(#Adobe_OpacityMaskFilter)">
		<polygon id="path-1" fill="#FFFFFF" points="0,14.744 39.998,14.744 39.998,74.105 0,74.105 		"/>
	</g>
</mask>
<path id="Fill-5" mask="url(#mask-2)" fill="#A5A5A5" d="M39.346,61.319l-14.75-13.927l0.01-26.842l1.548,9.636
	c0.122,0.758,0.776,1.298,1.521,1.298c0.082,0,0.164-0.007,0.246-0.02c0.842-0.135,1.414-0.926,1.278-1.767l-2.036-12.672
	c-0.011-0.123-0.03-0.244-0.059-0.361c-0.26-1.101-1.249-1.92-2.43-1.92h-9.325c-1.15,0-2.118,0.777-2.408,1.835l-2.108,13.118
	c-0.135,0.841,0.437,1.632,1.278,1.767c0.841,0.135,1.632-0.437,1.768-1.278l1.548-9.635l0.009,26.81L0.652,61.319
	c-0.62,0.585-0.82,1.489-0.505,2.282c0.315,0.793,1.082,1.312,1.934,1.312h7.229v7.109c0,1.149,0.932,2.082,2.082,2.082
	c1.149,0,2.082-0.933,2.082-2.082v-9.191c0-1.148-0.932-2.081-2.082-2.081H7.318l11.58-10.935c0.43-0.381,0.701-0.938,0.701-1.557
	v-15.57c0-0.23,0.187-0.417,0.417-0.417s0.416,0.187,0.416,0.417v15.223c-0.112,0.663,0.098,1.367,0.623,1.863L32.68,60.751h-4.074
	c-1.149,0-2.081,0.933-2.081,2.081v9.191c0,1.149,0.932,2.082,2.081,2.082c1.15,0,2.082-0.933,2.082-2.082v-7.109h7.229
	c0.854,0,1.619-0.52,1.935-1.312S39.965,61.904,39.346,61.319"/>
</svg>
