<?xml version="1.0" encoding="utf-8"?>
<!-- Generator: Adobe Illustrator 16.0.4, SVG Export Plug-In . SVG Version: 6.00 Build 0)  -->
<!DOCTYPE svg PUBLIC "-//W3C//DTD SVG 1.1//EN" "http://www.w3.org/Graphics/SVG/1.1/DTD/svg11.dtd">
<svg version="1.1" id="Layer_1" xmlns="http://www.w3.org/2000/svg" xmlns:xlink="http://www.w3.org/1999/xlink" x="0px" y="0px"
	 width="25px" height="25px" viewBox="0 0 25 25" enable-background="new 0 0 25 25" xml:space="preserve">
<g>
	<rect fill="none" width="25" height="25"/>
	<g>
		<path id="Fill-1_7_" fill="#5482AE" d="M13.669,6.794c0-0.646-0.522-1.169-1.168-1.169c-0.646,0-1.169,0.523-1.169,1.169
			c0,0.646,0.523,1.169,1.169,1.169S13.669,7.44,13.669,6.794"/>
		<path id="Fill-3_9_" fill="#5482AE" d="M13.424,21.605c0.424,0,0.768-0.346,0.768-0.77l0.004-10.241l0.572,3.563
			c0.045,0.279,0.287,0.479,0.562,0.479c0.029,0,0.06-0.002,0.091-0.008c0.311-0.051,0.522-0.343,0.473-0.652l-0.752-4.683
			c-0.006-0.047-0.013-0.091-0.022-0.135c-0.097-0.406-0.463-0.709-0.898-0.709h-3.446c-0.426,0-0.783,0.288-0.89,0.679
			l-0.778,4.847c-0.05,0.31,0.161,0.602,0.471,0.652c0.311,0.05,0.604-0.161,0.653-0.471l0.573-3.562l0.003,10.24
			c0,0.424,0.345,0.77,0.771,0.77c0.424,0,0.769-0.346,0.769-0.77v-5.754c0-0.084,0.069-0.154,0.153-0.154s0.154,0.07,0.154,0.154
			v5.754C12.653,21.26,12.998,21.605,13.424,21.605"/>
	</g>
	<polyline fill="none" stroke="#5482AE" stroke-width="1.75" stroke-linecap="round" stroke-linejoin="round" points="6.75,21.374 
		6.75,3.375 18.25,3.375 18.25,21.374 	"/>
</g>
</svg>
