<?xml version="1.0" encoding="utf-8"?>
<!-- Generator: Adobe Illustrator 16.0.4, SVG Export Plug-In . SVG Version: 6.00 Build 0)  -->
<!DOCTYPE svg PUBLIC "-//W3C//DTD SVG 1.1//EN" "http://www.w3.org/Graphics/SVG/1.1/DTD/svg11.dtd">
<svg version="1.1" id="Layer_1" xmlns="http://www.w3.org/2000/svg" xmlns:xlink="http://www.w3.org/1999/xlink" x="0px" y="0px"
	 width="40px" height="80px" viewBox="0 0 40 80" enable-background="new 0 0 40 80" xml:space="preserve">
<title>Group 10</title>
<desc>Created with Sketch.</desc>
<path id="Fill-1" fill="#A5A5A5" d="M22.913,10.575c0-1.748-1.417-3.164-3.164-3.164c-1.748,0-3.164,1.417-3.164,3.164
	c0,1.747,1.417,3.164,3.164,3.164C21.496,13.739,22.913,12.322,22.913,10.575"/>
<path id="Fill-3" fill="#A5A5A5" d="M22.247,50.342c1.149,0,2.081-0.933,2.081-2.082l0.01-27.709l1.549,9.636
	c0.121,0.758,0.777,1.298,1.521,1.298c0.08,0,0.163-0.007,0.246-0.02c0.841-0.135,1.413-0.926,1.277-1.767l-2.035-12.672
	c-0.012-0.123-0.031-0.244-0.059-0.361c-0.262-1.101-1.25-1.92-2.43-1.92h-9.326c-1.15,0-2.118,0.777-2.408,1.835l-2.108,13.118
	c-0.135,0.841,0.437,1.632,1.278,1.767c0.841,0.135,1.632-0.437,1.767-1.278l1.548-9.635l0.01,27.708
	c0,1.149,0.932,2.082,2.082,2.082c1.15,0,2.082-0.933,2.082-2.082v-15.57c0-0.23,0.186-0.417,0.416-0.417s0.417,0.187,0.417,0.417
	v15.57C20.166,49.409,21.098,50.342,22.247,50.342"/>
<path id="Fill-5" fill="#A5A5A5" d="M4.762,54.121c1.149,0,2.082-0.932,2.082-2.081V4.163h25.811V52.04
	c0,1.149,0.933,2.081,2.082,2.081c1.15,0,2.082-0.932,2.082-2.081V2.082C36.818,0.932,35.887,0,34.736,0H4.762
	C3.612,0,2.68,0.932,2.68,2.082V52.04C2.68,53.189,3.612,54.121,4.762,54.121"/>
<defs>
	<filter id="Adobe_OpacityMaskFilter" filterUnits="userSpaceOnUse" x="0" y="49.959" width="39.998" height="27.477">
		<feColorMatrix  type="matrix" values="1 0 0 0 0  0 1 0 0 0  0 0 1 0 0  0 0 0 1 0"/>
	</filter>
</defs>
<mask maskUnits="userSpaceOnUse" x="0" y="49.959" width="39.998" height="27.477" id="mask-2">
	<g filter="url(#Adobe_OpacityMaskFilter)">
		<polygon id="path-1" fill="#FFFFFF" points="0,49.959 39.998,49.959 39.998,77.436 0,77.436 		"/>
	</g>
</mask>
<path id="Fill-7" mask="url(#mask-2)" fill="#A5A5A5" d="M39.854,57.939c-0.313-0.797-1.082-1.32-1.938-1.32h-7.36V52.04
	c0-1.149-0.932-2.081-2.081-2.081c-1.15,0-2.082,0.932-2.082,2.081v6.661c0,1.149,0.932,2.082,2.082,2.082h4.15L19.999,72.539
	L7.372,60.783h4.151c1.15,0,2.082-0.933,2.082-2.082V52.04c0-1.149-0.932-2.081-2.082-2.081c-1.149,0-2.082,0.932-2.082,2.081v4.579
	h-7.36c-0.855,0-1.624,0.523-1.937,1.32c-0.313,0.795-0.107,1.702,0.519,2.285l17.886,16.652c0.385,0.359,0.892,0.559,1.418,0.559
	h0.062c0.526,0,1.033-0.199,1.419-0.559l17.885-16.652C39.961,59.642,40.166,58.734,39.854,57.939"/>
</svg>
