<?xml version="1.0" encoding="utf-8"?>
<!-- Generator: Adobe Illustrator 16.0.4, SVG Export Plug-In . SVG Version: 6.00 Build 0)  -->
<!DOCTYPE svg PUBLIC "-//W3C//DTD SVG 1.1//EN" "http://www.w3.org/Graphics/SVG/1.1/DTD/svg11.dtd">
<svg version="1.1" id="Layer_1" xmlns="http://www.w3.org/2000/svg" xmlns:xlink="http://www.w3.org/1999/xlink" x="0px" y="0px"
	 width="40px" height="40px" viewBox="0 0 40 40" enable-background="new 0 0 40 40" xml:space="preserve">
<title>Group 7 Copy</title>
<desc>Created with Sketch.</desc>
<g>
	<path fill="#5798D9" d="M20,0.5C9.248,0.5,0.5,9.248,0.5,20c0,10.752,8.748,19.5,19.5,19.5c10.752,0,19.5-8.748,19.5-19.5
		C39.5,9.248,30.752,0.5,20,0.5z M20,35.5c-8.547,0-15.5-6.953-15.5-15.5S11.453,4.5,20,4.5S35.5,11.453,35.5,20
		S28.547,35.5,20,35.5z"/>
	<path fill="#5798D9" d="M28.248,17.792l-16.499,0c-1.218,0-2.208,0.991-2.208,2.21c0.003,1.217,0.994,2.206,2.208,2.206h16.499
		c1.218,0,2.209-0.99,2.209-2.208C30.457,18.782,29.466,17.792,28.248,17.792z"/>
</g>
</svg>
