<?xml version="1.0" encoding="utf-8"?>
<!-- Generator: Adobe Illustrator 16.0.4, SVG Export Plug-In . SVG Version: 6.00 Build 0)  -->
<!DOCTYPE svg PUBLIC "-//W3C//DTD SVG 1.1//EN" "http://www.w3.org/Graphics/SVG/1.1/DTD/svg11.dtd">
<svg version="1.1" id="Layer_1" xmlns="http://www.w3.org/2000/svg" xmlns:xlink="http://www.w3.org/1999/xlink" x="0px" y="0px"
	 width="25px" height="25px" viewBox="0 0 25 25" enable-background="new 0 0 25 25" xml:space="preserve">
<g>
	<rect fill="none" width="25" height="25"/>
	<g>
		<path id="Fill-1_6_" fill="#5482AE" d="M7.63,9.639c0-0.525-0.425-0.95-0.95-0.95c-0.526,0-0.951,0.426-0.951,0.95
			c0,0.525,0.425,0.95,0.951,0.95C7.205,10.589,7.63,10.164,7.63,9.639"/>
		<path id="Fill-3_8_" fill="#5482AE" d="M7.432,21.688c0.344,0,0.624-0.281,0.624-0.626l0.003-8.331l0.465,2.897
			c0.037,0.229,0.234,0.391,0.457,0.391c0.025,0,0.05-0.003,0.075-0.007c0.252-0.041,0.424-0.278,0.384-0.53l-0.612-3.81
			c-0.005-0.038-0.01-0.074-0.019-0.109c-0.078-0.331-0.375-0.577-0.73-0.577H5.277c-0.346,0-0.637,0.234-0.725,0.553l-0.632,3.943
			c-0.042,0.252,0.13,0.489,0.383,0.53c0.253,0.041,0.49-0.131,0.531-0.384L5.3,12.732l0.002,8.33c0,0.345,0.28,0.626,0.626,0.626
			s0.626-0.281,0.626-0.626v-4.682c0-0.067,0.056-0.124,0.125-0.124c0.068,0,0.125,0.057,0.125,0.124v4.682
			C6.804,21.407,7.084,21.688,7.432,21.688"/>
	</g>
	<g>
		<path id="Fill-1_5_" fill="#5482AE" d="M13.451,4.263c0-0.525-0.426-0.95-0.951-0.95c-0.526,0-0.951,0.426-0.951,0.95
			c0,0.525,0.425,0.95,0.951,0.95C13.025,5.213,13.451,4.788,13.451,4.263"/>
		<path id="Fill-3_7_" fill="#5482AE" d="M13.252,16.312c0.344,0,0.624-0.281,0.624-0.626l0.003-8.331l0.465,2.897
			c0.037,0.229,0.234,0.391,0.457,0.391c0.025,0,0.051-0.003,0.076-0.007c0.252-0.041,0.424-0.278,0.384-0.53l-0.612-3.81
			c-0.004-0.038-0.01-0.074-0.018-0.109C14.553,5.856,14.255,5.61,13.9,5.61h-2.804c-0.346,0-0.637,0.234-0.725,0.553l-0.633,3.943
			c-0.042,0.252,0.13,0.489,0.383,0.53c0.253,0.041,0.491-0.131,0.531-0.384l0.466-2.896l0.002,8.33c0,0.345,0.28,0.626,0.626,0.626
			s0.626-0.281,0.626-0.626v-4.682c0-0.067,0.056-0.124,0.125-0.124c0.068,0,0.125,0.057,0.125,0.124v4.682
			C12.624,16.031,12.905,16.312,13.252,16.312"/>
	</g>
	<g>
		<path id="Fill-1_4_" fill="#5482AE" d="M19.271,9.64c0-0.525-0.425-0.951-0.95-0.951s-0.951,0.426-0.951,0.951
			s0.426,0.95,0.951,0.95S19.271,10.165,19.271,9.64"/>
		<path id="Fill-3_6_" fill="#5482AE" d="M19.071,21.688c0.344,0,0.624-0.281,0.624-0.625l0.004-8.331l0.465,2.897
			c0.037,0.228,0.234,0.391,0.457,0.391c0.025,0,0.05-0.003,0.075-0.008c0.253-0.04,0.425-0.278,0.384-0.53l-0.611-3.809
			c-0.005-0.038-0.01-0.074-0.02-0.11c-0.077-0.33-0.375-0.576-0.729-0.576h-2.804c-0.346,0-0.637,0.234-0.725,0.553l-0.633,3.942
			c-0.041,0.252,0.131,0.49,0.384,0.53c0.253,0.042,0.491-0.13,0.53-0.383l0.467-2.897l0.002,8.331c0,0.344,0.281,0.625,0.627,0.625
			s0.626-0.281,0.626-0.625v-4.682c0-0.068,0.056-0.124,0.124-0.124s0.125,0.056,0.125,0.124v4.682
			C18.443,21.407,18.725,21.688,19.071,21.688"/>
	</g>
</g>
</svg>
