<?xml version="1.0" encoding="utf-8"?>
<!-- Generator: Adobe Illustrator 26.5.0, SVG Export Plug-In . SVG Version: 6.00 Build 0)  -->
<svg version="1.1" id="vizGraphics" shape-rendering="geometricPrecision"
	 xmlns="http://www.w3.org/2000/svg" xmlns:xlink="http://www.w3.org/1999/xlink" x="0px" y="0px" viewBox="0 0 320 40"
	 style="enable-background:new 0 0 320 40;" xml:space="preserve">
<style type="text/css">
	.st0{fill:#5482AE;}
	.st1{fill:#50B364;}
	.st2{fill:#FF9500;}
	.st3{fill:#F25B3D;}
</style>
<path class="st0" d="M180,0c-11,0-20,9-20,20s9,20,20,20s20-9,20-20S191,0,180,0z M174.2,6.8c0-0.8,0.6-1.4,1.4-1.4
	c0.8,0,1.4,0.6,1.4,1.4v1.8c0,0.8-0.6,1.4-1.4,1.4c-0.8,0-1.4-0.8-1.4-1.4V6.8z M174.2,13.8c0-0.8,0.6-1.4,1.4-1.4
	c0.8,0,1.4,0.6,1.4,1.4v1.8c0,0.8-0.6,1.4-1.4,1.4c-0.8,0-1.4-0.8-1.4-1.4V13.8z M177,33.2c0,0.8-0.6,1.4-1.4,1.4
	c-0.8,0-1.4-0.8-1.4-1.4v-1.8c0-0.8,0.6-1.4,1.4-1.4c0.8,0,1.4,0.6,1.4,1.4V33.2z M177,26.2c0,0.8-0.6,1.4-1.4,1.4
	c-0.8,0-1.4-0.8-1.4-1.4v-1.8c0-0.8,0.6-1.4,1.4-1.4c0.8,0,1.4,0.6,1.4,1.4V26.2z M192.2,21.2l-7.4,7.4c-0.4,0.4-0.8,0.6-1.2,0.6
	c-0.4,0-0.8-0.2-1.2-0.6c-0.8-0.8-0.8-1.8,0-2.4l4.4-4.4h-18c-1,0-1.8-0.8-1.8-1.8s0.8-1.8,1.8-1.8h17.8l-4.4-4.4
	c-0.8-0.8-0.8-1.8,0-2.4c0.8-0.8,1.8-0.8,2.4,0l7.4,7.4C192.8,19.4,192.8,20.6,192.2,21.2z"/>
<path class="st0" d="M20,0C9,0,0,9,0,20s9,20,20,20s20-9,20-20S31,0,20,0z M20,30.8c-1.1,0-2-0.9-2-1.9s0.9-2,2-2s2,0.9,2,2
	S21.1,30.8,20,30.8z M24.1,25.4c-0.3,0.2-0.5,0.2-0.8,0.2c-0.5,0-1-0.2-1.3-0.7c-0.1-0.1-0.2-0.3-0.3-0.4c-0.1-0.1-0.2-0.2-0.4-0.3
	c-0.1-0.1-0.3-0.2-0.4-0.2c-0.1-0.1-0.3-0.1-0.4-0.1c-0.3-0.1-0.6-0.1-1,0c-0.2,0-0.3,0.1-0.4,0.1c-0.1,0.1-0.3,0.1-0.4,0.2
	c-0.1,0.1-0.3,0.2-0.4,0.3c-0.1,0.1-0.2,0.2-0.3,0.4c-0.5,0.7-1.4,0.9-2.1,0.4C15.2,25,15,24,15.5,23.3c0.2-0.3,0.4-0.6,0.7-0.8
	c0.2-0.3,0.5-0.5,0.8-0.7c0.3-0.2,0.6-0.4,0.9-0.5c0.3-0.1,0.7-0.3,1-0.3c0.7-0.2,1.5-0.2,2.2,0c0.4,0.1,0.7,0.2,1,0.3
	c0.3,0.1,0.6,0.3,0.9,0.5c0.3,0.2,0.6,0.4,0.8,0.7c0.2,0.3,0.5,0.5,0.7,0.8C25,24,24.8,25,24.1,25.4z M28.7,22.5
	c-0.2,0.1-0.5,0.2-0.7,0.2c-0.5,0-1-0.3-1.3-0.8c-0.1-0.2-0.2-0.4-0.4-0.6c-0.1-0.2-0.3-0.4-0.4-0.5c-0.2-0.2-0.3-0.3-0.5-0.5
	c-0.2-0.2-0.4-0.3-0.5-0.5c-0.2-0.1-0.4-0.3-0.6-0.4c-0.2-0.1-0.4-0.3-0.6-0.4c-0.2-0.1-0.4-0.2-0.7-0.3c-0.2-0.1-0.5-0.2-0.7-0.2
	c-0.2-0.1-0.5-0.1-0.7-0.2c-0.2,0-0.5-0.1-0.8-0.1c-0.5,0-1.1,0-1.6,0c-0.3,0-0.5,0.1-0.8,0.1c-0.2,0-0.5,0.1-0.7,0.2
	c-0.2,0.1-0.5,0.2-0.7,0.2c-0.2,0.1-0.4,0.2-0.7,0.3c-0.2,0.1-0.4,0.2-0.6,0.4c-0.2,0.1-0.4,0.3-0.6,0.4c-0.2,0.1-0.4,0.3-0.5,0.5
	c-0.2,0.2-0.3,0.3-0.5,0.5c-0.2,0.2-0.3,0.4-0.4,0.5c-0.1,0.2-0.3,0.4-0.4,0.6c-0.4,0.7-1.3,1-2,0.6c-0.7-0.4-1-1.3-0.6-2
	c0.2-0.3,0.3-0.6,0.5-0.8c0.2-0.3,0.4-0.5,0.6-0.8c0.2-0.2,0.4-0.5,0.7-0.7c0.2-0.2,0.5-0.4,0.8-0.6c0.3-0.2,0.5-0.4,0.8-0.6
	c0.3-0.2,0.6-0.4,0.9-0.5c0.3-0.2,0.6-0.3,0.9-0.4c0.3-0.1,0.6-0.2,1-0.3c0.3-0.1,0.7-0.2,1-0.2c0.3-0.1,0.7-0.1,1-0.2
	c0.7-0.1,1.4-0.1,2.1,0c0.4,0,0.7,0.1,1,0.2c0.3,0.1,0.7,0.1,1,0.2c0.3,0.1,0.7,0.2,1,0.3c0.3,0.1,0.6,0.3,0.9,0.4
	c0.3,0.1,0.6,0.3,0.9,0.5c0.3,0.2,0.6,0.4,0.8,0.6c0.3,0.2,0.5,0.4,0.8,0.6c0.2,0.2,0.5,0.5,0.7,0.7c0.2,0.2,0.4,0.5,0.6,0.8
	c0.2,0.3,0.4,0.5,0.5,0.8C29.7,21.1,29.5,22.1,28.7,22.5z M32.9,18.4c-0.7,0.5-1.6,0.3-2.1-0.4c-0.5-0.7-1-1.3-1.6-1.9
	c-0.6-0.6-1.2-1.1-1.9-1.6c-0.7-0.5-1.4-0.9-2.2-1.2c-0.8-0.3-1.6-0.6-2.4-0.7c-1.7-0.3-3.5-0.3-5.2,0c-0.8,0.2-1.7,0.4-2.4,0.7
	c-0.8,0.3-1.5,0.7-2.2,1.2c-0.7,0.5-1.3,1-1.9,1.6c-0.6,0.6-1.1,1.2-1.6,1.9c-0.3,0.4-0.8,0.6-1.2,0.6c-0.3,0-0.6-0.1-0.9-0.3
	c-0.7-0.5-0.9-1.4-0.4-2.1c0.6-0.8,1.2-1.6,2-2.3c0.7-0.7,1.5-1.4,2.4-1.9c0.9-0.6,1.8-1.1,2.7-1.4c1-0.4,2-0.7,3-0.9
	c2.1-0.4,4.3-0.4,6.4,0c1,0.2,2,0.5,3,0.9c0.9,0.4,1.9,0.9,2.7,1.4c0.8,0.6,1.6,1.2,2.4,1.9c0.7,0.7,1.4,1.5,2,2.3
	C33.7,17,33.5,17.9,32.9,18.4z"/>
<path class="st1" d="M220,0c-11,0-20,9-20,20s9,20,20,20s20-9,20-20S231,0,220,0z M214.2,6.8c0-0.8,0.6-1.4,1.4-1.4
	c0.8,0,1.4,0.6,1.4,1.4v1.8c0,0.8-0.6,1.4-1.4,1.4c-0.8,0-1.4-0.8-1.4-1.4V6.8z M214.2,13.8c0-0.8,0.6-1.4,1.4-1.4
	c0.8,0,1.4,0.6,1.4,1.4v1.8c0,0.8-0.6,1.4-1.4,1.4c-0.8,0-1.4-0.8-1.4-1.4V13.8z M217,33.2c0,0.8-0.6,1.4-1.4,1.4
	c-0.8,0-1.4-0.8-1.4-1.4v-1.8c0-0.8,0.6-1.4,1.4-1.4c0.8,0,1.4,0.6,1.4,1.4V33.2z M217,26.2c0,0.8-0.6,1.4-1.4,1.4
	c-0.8,0-1.4-0.8-1.4-1.4v-1.8c0-0.8,0.6-1.4,1.4-1.4c0.8,0,1.4,0.6,1.4,1.4V26.2z M232.2,21.2l-7.4,7.4c-0.4,0.4-0.8,0.6-1.2,0.6
	c-0.4,0-0.8-0.2-1.2-0.6c-0.8-0.8-0.8-1.8,0-2.4l4.4-4.4h-18c-1,0-1.8-0.8-1.8-1.8s0.8-1.8,1.8-1.8h17.8l-4.4-4.4
	c-0.8-0.8-0.8-1.8,0-2.4c0.8-0.8,1.8-0.8,2.4,0l7.4,7.4C232.8,19.4,232.8,20.6,232.2,21.2z"/>
<path class="st1" d="M60,0C49,0,40,9,40,20s9,20,20,20s20-9,20-20S71,0,60,0z M60,30.8c-1.1,0-2-0.9-2-1.9s0.9-2,2-2s2,0.9,2,2
	S61.1,30.8,60,30.8z M64.1,25.4c-0.3,0.2-0.5,0.2-0.8,0.2c-0.5,0-1-0.2-1.3-0.7c-0.1-0.1-0.2-0.3-0.3-0.4c-0.1-0.1-0.2-0.2-0.4-0.3
	c-0.1-0.1-0.3-0.2-0.4-0.2c-0.1-0.1-0.3-0.1-0.4-0.1c-0.3-0.1-0.6-0.1-1,0c-0.2,0-0.3,0.1-0.4,0.1c-0.1,0.1-0.3,0.1-0.4,0.2
	c-0.1,0.1-0.3,0.2-0.4,0.3c-0.1,0.1-0.2,0.2-0.3,0.4c-0.5,0.7-1.4,0.9-2.1,0.4C55.2,25,55,24,55.5,23.3c0.2-0.3,0.4-0.6,0.7-0.8
	c0.2-0.3,0.5-0.5,0.8-0.7c0.3-0.2,0.6-0.4,0.9-0.5c0.3-0.1,0.7-0.3,1-0.3c0.7-0.2,1.5-0.2,2.2,0c0.4,0.1,0.7,0.2,1,0.3
	c0.3,0.1,0.6,0.3,0.9,0.5c0.3,0.2,0.6,0.4,0.8,0.7c0.2,0.3,0.5,0.5,0.7,0.8C65,24,64.8,25,64.1,25.4z M68.7,22.5
	c-0.2,0.1-0.5,0.2-0.7,0.2c-0.5,0-1-0.3-1.3-0.8c-0.1-0.2-0.2-0.4-0.4-0.6c-0.1-0.2-0.3-0.4-0.4-0.5c-0.2-0.2-0.3-0.3-0.5-0.5
	c-0.2-0.2-0.4-0.3-0.5-0.5c-0.2-0.1-0.4-0.3-0.6-0.4c-0.2-0.1-0.4-0.3-0.6-0.4c-0.2-0.1-0.4-0.2-0.7-0.3c-0.2-0.1-0.5-0.2-0.7-0.2
	c-0.2-0.1-0.5-0.1-0.7-0.2c-0.2,0-0.5-0.1-0.8-0.1c-0.5,0-1.1,0-1.6,0c-0.3,0-0.5,0.1-0.8,0.1c-0.2,0-0.5,0.1-0.7,0.2
	c-0.2,0.1-0.5,0.2-0.7,0.2c-0.2,0.1-0.4,0.2-0.7,0.3c-0.2,0.1-0.4,0.2-0.6,0.4c-0.2,0.1-0.4,0.3-0.6,0.4c-0.2,0.1-0.4,0.3-0.5,0.5
	c-0.2,0.2-0.3,0.3-0.5,0.5c-0.2,0.2-0.3,0.4-0.4,0.5c-0.1,0.2-0.3,0.4-0.4,0.6c-0.4,0.7-1.3,1-2,0.6c-0.7-0.4-1-1.3-0.6-2
	c0.2-0.3,0.3-0.6,0.5-0.8c0.2-0.3,0.4-0.5,0.6-0.8c0.2-0.2,0.4-0.5,0.7-0.7c0.2-0.2,0.5-0.4,0.8-0.6c0.3-0.2,0.5-0.4,0.8-0.6
	c0.3-0.2,0.6-0.4,0.9-0.5c0.3-0.2,0.6-0.3,0.9-0.4c0.3-0.1,0.6-0.2,1-0.3c0.3-0.1,0.7-0.2,1-0.2c0.3-0.1,0.7-0.1,1-0.2
	c0.7-0.1,1.4-0.1,2.1,0c0.4,0,0.7,0.1,1,0.2c0.3,0.1,0.7,0.1,1,0.2c0.3,0.1,0.7,0.2,1,0.3c0.3,0.1,0.6,0.3,0.9,0.4
	c0.3,0.1,0.6,0.3,0.9,0.5c0.3,0.2,0.6,0.4,0.8,0.6c0.3,0.2,0.5,0.4,0.8,0.6c0.2,0.2,0.5,0.5,0.7,0.7c0.2,0.2,0.4,0.5,0.6,0.8
	c0.2,0.3,0.4,0.5,0.5,0.8C69.7,21.1,69.5,22.1,68.7,22.5z M72.9,18.4c-0.7,0.5-1.6,0.3-2.1-0.4c-0.5-0.7-1-1.3-1.6-1.9
	c-0.6-0.6-1.2-1.1-1.9-1.6c-0.7-0.5-1.4-0.9-2.2-1.2c-0.8-0.3-1.6-0.6-2.4-0.7c-1.7-0.3-3.5-0.3-5.2,0c-0.8,0.2-1.7,0.4-2.4,0.7
	c-0.8,0.3-1.5,0.7-2.2,1.2c-0.7,0.5-1.3,1-1.9,1.6c-0.6,0.6-1.1,1.2-1.6,1.9c-0.3,0.4-0.8,0.6-1.2,0.6c-0.3,0-0.6-0.1-0.9-0.3
	c-0.7-0.5-0.9-1.4-0.4-2.1c0.6-0.8,1.2-1.6,2-2.3c0.7-0.7,1.5-1.4,2.4-1.9c0.9-0.6,1.8-1.1,2.7-1.4c1-0.4,2-0.7,3-0.9
	c2.1-0.4,4.3-0.4,6.4,0c1,0.2,2,0.5,3,0.9c0.9,0.4,1.9,0.9,2.7,1.4c0.8,0.6,1.6,1.2,2.4,1.9c0.7,0.7,1.4,1.5,2,2.3
	C73.7,17,73.5,17.9,72.9,18.4z"/>
<path class="st2" d="M260,0c-11,0-20,9-20,20s9,20,20,20s20-9,20-20S271,0,260,0z M254.2,6.8c0-0.8,0.6-1.4,1.4-1.4
	c0.8,0,1.4,0.6,1.4,1.4v1.8c0,0.8-0.6,1.4-1.4,1.4c-0.8,0-1.4-0.8-1.4-1.4V6.8z M254.2,13.8c0-0.8,0.6-1.4,1.4-1.4
	c0.8,0,1.4,0.6,1.4,1.4v1.8c0,0.8-0.6,1.4-1.4,1.4c-0.8,0-1.4-0.8-1.4-1.4V13.8z M257,33.2c0,0.8-0.6,1.4-1.4,1.4
	c-0.8,0-1.4-0.8-1.4-1.4v-1.8c0-0.8,0.6-1.4,1.4-1.4c0.8,0,1.4,0.6,1.4,1.4V33.2z M257,26.2c0,0.8-0.6,1.4-1.4,1.4
	c-0.8,0-1.4-0.8-1.4-1.4v-1.8c0-0.8,0.6-1.4,1.4-1.4c0.8,0,1.4,0.6,1.4,1.4V26.2z M272.2,21.2l-7.4,7.4c-0.4,0.4-0.8,0.6-1.2,0.6
	s-0.8-0.2-1.2-0.6c-0.8-0.8-0.8-1.8,0-2.4l4.4-4.4h-18c-1,0-1.8-0.8-1.8-1.8s0.8-1.8,1.8-1.8h17.8l-4.4-4.4c-0.8-0.8-0.8-1.8,0-2.4
	c0.8-0.8,1.8-0.8,2.4,0l7.4,7.4C272.8,19.4,272.8,20.6,272.2,21.2z"/>
<path class="st2" d="M100,0C89,0,80,9,80,20s9,20,20,20s20-9,20-20S111,0,100,0z M100,30.8c-1.1,0-2-0.9-2-1.9s0.9-2,2-2s2,0.9,2,2
	S101.1,30.8,100,30.8z M104.1,25.4c-0.3,0.2-0.5,0.2-0.8,0.2c-0.5,0-1-0.2-1.3-0.7c-0.1-0.1-0.2-0.3-0.3-0.4
	c-0.1-0.1-0.2-0.2-0.4-0.3c-0.1-0.1-0.3-0.2-0.4-0.2c-0.1-0.1-0.3-0.1-0.4-0.1c-0.3-0.1-0.6-0.1-1,0c-0.2,0-0.3,0.1-0.4,0.1
	c-0.1,0.1-0.3,0.1-0.4,0.2c-0.1,0.1-0.3,0.2-0.4,0.3c-0.1,0.1-0.2,0.2-0.3,0.4c-0.5,0.7-1.4,0.9-2.1,0.4C95.2,25,95,24,95.5,23.3
	c0.2-0.3,0.4-0.6,0.7-0.8c0.2-0.3,0.5-0.5,0.8-0.7c0.3-0.2,0.6-0.4,0.9-0.5c0.3-0.1,0.7-0.3,1-0.3c0.7-0.2,1.5-0.2,2.2,0
	c0.4,0.1,0.7,0.2,1,0.3c0.3,0.1,0.6,0.3,0.9,0.5c0.3,0.2,0.6,0.4,0.8,0.7c0.2,0.3,0.5,0.5,0.7,0.8C105,24,104.8,25,104.1,25.4z
	 M108.7,22.5c-0.2,0.1-0.5,0.2-0.7,0.2c-0.5,0-1-0.3-1.3-0.8c-0.1-0.2-0.2-0.4-0.4-0.6c-0.1-0.2-0.3-0.4-0.4-0.5
	c-0.2-0.2-0.3-0.3-0.5-0.5c-0.2-0.2-0.4-0.3-0.5-0.5c-0.2-0.1-0.4-0.3-0.6-0.4c-0.2-0.1-0.4-0.3-0.6-0.4c-0.2-0.1-0.4-0.2-0.7-0.3
	c-0.2-0.1-0.5-0.2-0.7-0.2c-0.2-0.1-0.5-0.1-0.7-0.2c-0.2,0-0.5-0.1-0.8-0.1c-0.5,0-1.1,0-1.6,0c-0.3,0-0.5,0.1-0.8,0.1
	c-0.2,0-0.5,0.1-0.7,0.2c-0.2,0.1-0.5,0.2-0.7,0.2c-0.2,0.1-0.4,0.2-0.7,0.3c-0.2,0.1-0.4,0.2-0.6,0.4c-0.2,0.1-0.4,0.3-0.6,0.4
	c-0.2,0.1-0.4,0.3-0.5,0.5c-0.2,0.2-0.3,0.3-0.5,0.5c-0.2,0.2-0.3,0.4-0.4,0.5c-0.1,0.2-0.3,0.4-0.4,0.6c-0.4,0.7-1.3,1-2,0.6
	c-0.7-0.4-1-1.3-0.6-2c0.2-0.3,0.3-0.6,0.5-0.8c0.2-0.3,0.4-0.5,0.6-0.8c0.2-0.2,0.4-0.5,0.7-0.7c0.2-0.2,0.5-0.4,0.8-0.6
	c0.3-0.2,0.5-0.4,0.8-0.6c0.3-0.2,0.6-0.4,0.9-0.5c0.3-0.2,0.6-0.3,0.9-0.4c0.3-0.1,0.6-0.2,1-0.3c0.3-0.1,0.7-0.2,1-0.2
	c0.3-0.1,0.7-0.1,1-0.2c0.7-0.1,1.4-0.1,2.1,0c0.4,0,0.7,0.1,1,0.2c0.3,0.1,0.7,0.1,1,0.2c0.3,0.1,0.7,0.2,1,0.3
	c0.3,0.1,0.6,0.3,0.9,0.4c0.3,0.1,0.6,0.3,0.9,0.5c0.3,0.2,0.6,0.4,0.8,0.6c0.3,0.2,0.5,0.4,0.8,0.6c0.2,0.2,0.5,0.5,0.7,0.7
	c0.2,0.2,0.4,0.5,0.6,0.8c0.2,0.3,0.4,0.5,0.5,0.8C109.7,21.1,109.5,22.1,108.7,22.5z M112.9,18.4c-0.7,0.5-1.6,0.3-2.1-0.4
	c-0.5-0.7-1-1.3-1.6-1.9c-0.6-0.6-1.2-1.1-1.9-1.6c-0.7-0.5-1.4-0.9-2.2-1.2c-0.8-0.3-1.6-0.6-2.4-0.7c-1.7-0.3-3.5-0.3-5.2,0
	c-0.8,0.2-1.7,0.4-2.4,0.7c-0.8,0.3-1.5,0.7-2.2,1.2c-0.7,0.5-1.3,1-1.9,1.6c-0.6,0.6-1.1,1.2-1.6,1.9c-0.3,0.4-0.8,0.6-1.2,0.6
	c-0.3,0-0.6-0.1-0.9-0.3c-0.7-0.5-0.9-1.4-0.4-2.1c0.6-0.8,1.2-1.6,2-2.3c0.7-0.7,1.5-1.4,2.4-1.9c0.9-0.6,1.8-1.1,2.7-1.4
	c1-0.4,2-0.7,3-0.9c2.1-0.4,4.3-0.4,6.4,0c1,0.2,2,0.5,3,0.9c0.9,0.4,1.9,0.9,2.7,1.4c0.8,0.6,1.6,1.2,2.4,1.9
	c0.7,0.7,1.4,1.5,2,2.3C113.7,17,113.5,17.9,112.9,18.4z"/>
<path class="st3" d="M300,0c-11,0-20,9-20,20s9,20,20,20s20-9,20-20S311,0,300,0z M294.2,6.8c0-0.8,0.6-1.4,1.4-1.4
	c0.8,0,1.4,0.6,1.4,1.4v1.8c0,0.8-0.6,1.4-1.4,1.4c-0.8,0-1.4-0.8-1.4-1.4V6.8z M294.2,13.8c0-0.8,0.6-1.4,1.4-1.4
	c0.8,0,1.4,0.6,1.4,1.4v1.8c0,0.8-0.6,1.4-1.4,1.4c-0.8,0-1.4-0.8-1.4-1.4V13.8z M297,33.2c0,0.8-0.6,1.4-1.4,1.4
	c-0.8,0-1.4-0.8-1.4-1.4v-1.8c0-0.8,0.6-1.4,1.4-1.4c0.8,0,1.4,0.6,1.4,1.4V33.2z M297,26.2c0,0.8-0.6,1.4-1.4,1.4
	c-0.8,0-1.4-0.8-1.4-1.4v-1.8c0-0.8,0.6-1.4,1.4-1.4c0.8,0,1.4,0.6,1.4,1.4V26.2z M312.2,21.2l-7.4,7.4c-0.4,0.4-0.8,0.6-1.2,0.6
	s-0.8-0.2-1.2-0.6c-0.8-0.8-0.8-1.8,0-2.4l4.4-4.4h-18c-1,0-1.8-0.8-1.8-1.8s0.8-1.8,1.8-1.8h17.8l-4.4-4.4c-0.8-0.8-0.8-1.8,0-2.4
	c0.8-0.8,1.8-0.8,2.4,0l7.4,7.4C312.8,19.4,312.8,20.6,312.2,21.2z"/>
<path class="st3" d="M140,0c-11,0-20,9-20,20s9,20,20,20s20-9,20-20S151,0,140,0z M140,30.8c-1.1,0-2-0.9-2-1.9s0.9-2,2-2s2,0.9,2,2
	S141.1,30.8,140,30.8z M144.1,25.4c-0.3,0.2-0.5,0.2-0.8,0.2c-0.5,0-1-0.2-1.3-0.7c-0.1-0.1-0.2-0.3-0.3-0.4
	c-0.1-0.1-0.2-0.2-0.4-0.3c-0.1-0.1-0.3-0.2-0.4-0.2c-0.1-0.1-0.3-0.1-0.4-0.1c-0.3-0.1-0.6-0.1-1,0c-0.2,0-0.3,0.1-0.4,0.1
	c-0.1,0.1-0.3,0.1-0.4,0.2c-0.1,0.1-0.3,0.2-0.4,0.3c-0.1,0.1-0.2,0.2-0.3,0.4c-0.5,0.7-1.4,0.9-2.1,0.4c-0.7-0.5-0.9-1.4-0.4-2.1
	c0.2-0.3,0.4-0.6,0.7-0.8c0.2-0.3,0.5-0.5,0.8-0.7c0.3-0.2,0.6-0.4,0.9-0.5c0.3-0.1,0.7-0.3,1-0.3c0.7-0.2,1.5-0.2,2.2,0
	c0.4,0.1,0.7,0.2,1,0.3c0.3,0.1,0.6,0.3,0.9,0.5c0.3,0.2,0.6,0.4,0.8,0.7c0.2,0.3,0.5,0.5,0.7,0.8C145,24,144.8,25,144.1,25.4z
	 M148.7,22.5c-0.2,0.1-0.5,0.2-0.7,0.2c-0.5,0-1-0.3-1.3-0.8c-0.1-0.2-0.2-0.4-0.4-0.6c-0.1-0.2-0.3-0.4-0.4-0.5
	c-0.2-0.2-0.3-0.3-0.5-0.5c-0.2-0.2-0.4-0.3-0.5-0.5c-0.2-0.1-0.4-0.3-0.6-0.4c-0.2-0.1-0.4-0.3-0.6-0.4c-0.2-0.1-0.4-0.2-0.7-0.3
	c-0.2-0.1-0.5-0.2-0.7-0.2c-0.2-0.1-0.5-0.1-0.7-0.2c-0.2,0-0.5-0.1-0.8-0.1c-0.5,0-1.1,0-1.6,0c-0.3,0-0.5,0.1-0.8,0.1
	c-0.2,0-0.5,0.1-0.7,0.2c-0.2,0.1-0.5,0.2-0.7,0.2c-0.2,0.1-0.4,0.2-0.7,0.3c-0.2,0.1-0.4,0.2-0.6,0.4c-0.2,0.1-0.4,0.3-0.6,0.4
	c-0.2,0.1-0.4,0.3-0.5,0.5c-0.2,0.2-0.3,0.3-0.5,0.5c-0.2,0.2-0.3,0.4-0.4,0.5c-0.1,0.2-0.3,0.4-0.4,0.6c-0.4,0.7-1.3,1-2,0.6
	c-0.7-0.4-1-1.3-0.6-2c0.2-0.3,0.3-0.6,0.5-0.8c0.2-0.3,0.4-0.5,0.6-0.8c0.2-0.2,0.4-0.5,0.7-0.7c0.2-0.2,0.5-0.4,0.8-0.6
	c0.3-0.2,0.5-0.4,0.8-0.6c0.3-0.2,0.6-0.4,0.9-0.5c0.3-0.2,0.6-0.3,0.9-0.4c0.3-0.1,0.6-0.2,1-0.3c0.3-0.1,0.7-0.2,1-0.2
	c0.3-0.1,0.7-0.1,1-0.2c0.7-0.1,1.4-0.1,2.1,0c0.4,0,0.7,0.1,1,0.2c0.3,0.1,0.7,0.1,1,0.2c0.3,0.1,0.7,0.2,1,0.3
	c0.3,0.1,0.6,0.3,0.9,0.4c0.3,0.1,0.6,0.3,0.9,0.5c0.3,0.2,0.6,0.4,0.8,0.6c0.3,0.2,0.5,0.4,0.8,0.6c0.2,0.2,0.5,0.5,0.7,0.7
	c0.2,0.2,0.4,0.5,0.6,0.8c0.2,0.3,0.4,0.5,0.5,0.8C149.7,21.1,149.5,22.1,148.7,22.5z M152.9,18.4c-0.7,0.5-1.6,0.3-2.1-0.4
	c-0.5-0.7-1-1.3-1.6-1.9c-0.6-0.6-1.2-1.1-1.9-1.6c-0.7-0.5-1.4-0.9-2.2-1.2c-0.8-0.3-1.6-0.6-2.4-0.7c-1.7-0.3-3.5-0.3-5.2,0
	c-0.8,0.2-1.7,0.4-2.4,0.7c-0.8,0.3-1.5,0.7-2.2,1.2c-0.7,0.5-1.3,1-1.9,1.6c-0.6,0.6-1.1,1.2-1.6,1.9c-0.3,0.4-0.8,0.6-1.2,0.6
	c-0.3,0-0.6-0.1-0.9-0.3c-0.7-0.5-0.9-1.4-0.4-2.1c0.6-0.8,1.2-1.6,2-2.3c0.7-0.7,1.5-1.4,2.4-1.9c0.9-0.6,1.8-1.1,2.7-1.4
	c1-0.4,2-0.7,3-0.9c2.1-0.4,4.3-0.4,6.4,0c1,0.2,2,0.5,3,0.9c0.9,0.4,1.9,0.9,2.7,1.4c0.8,0.6,1.6,1.2,2.4,1.9
	c0.7,0.7,1.4,1.5,2,2.3C153.7,17,153.5,17.9,152.9,18.4z"/>
</svg>
