<?xml version="1.0" encoding="utf-8"?>
<svg version="1.1" id="vizGraphics" shape-rendering="geometricPrecision"
	 xmlns="http://www.w3.org/2000/svg" xmlns:xlink="http://www.w3.org/1999/xlink" x="0px" y="0px" viewBox="0 0 20 20"
	 style="enable-background:new 0 0 20 20;" xml:space="preserve">
<g id="wifi">
	<path class="fill" d="M10,0C4.5,0,0,4.5,0,10s4.5,10,10,10
		s10-4.5,10-10S15.5,0,10,0z M10,15.4c-0.5,0-1-0.4-1-1c0-0.5,0.4-1,1-1c0.5,0,1,0.4,1,1C11,14.9,10.5,15.4,10,15.4z M12.4,13.2
		c-0.2,0.1-0.3,0.2-0.4,0.2c-0.3,0-0.4-0.1-0.6-0.4c-0.2-0.3-0.4-0.4-0.6-0.6c-0.4-0.3-0.9-0.3-1.3,0c-0.3,0.2-0.4,0.4-0.6,0.6
		c-0.3,0.4-0.7,0.4-1.1,0.2c-0.4-0.3-0.4-0.7-0.2-1.1c0.4-0.4,0.7-0.8,1.1-1c0.9-0.5,2-0.5,2.9,0c0.4,0.3,0.8,0.6,1.1,1
		C12.8,12.4,12.7,12.9,12.4,13.2z M14.5,11.7c-0.4,0.3-0.8,0.1-1.1-0.3c-0.2-0.3-0.4-0.4-0.4-0.6c-0.4-0.4-0.9-0.8-1.3-1
		c-1.1-0.5-2.2-0.5-3.2,0c-0.5,0.3-1,0.6-1.3,1c-0.2,0.2-0.3,0.4-0.4,0.6c-0.2,0.3-0.4,0.4-0.6,0.4c-0.2,0-0.3,0-0.4-0.1
		c-0.4-0.3-0.4-0.7-0.3-1.1S5.8,10,6,9.8c0.5-0.6,1.1-1.1,1.8-1.4c1.4-0.7,3.1-0.7,4.6,0c0.7,0.4,1.3,0.8,1.8,1.4
		c0.2,0.3,0.4,0.5,0.6,0.8C14.9,11,14.8,11.4,14.5,11.7z M16.3,9.6c-0.2,0.1-0.3,0.2-0.4,0.2c-0.3,0-0.4-0.1-0.6-0.4
		c-0.3-0.4-0.4-0.6-0.7-0.9c-0.6-0.6-1.3-1.1-2-1.4c-1.6-0.7-3.4-0.7-5,0C6.8,7.5,6.1,8,5.4,8.6C5.2,8.9,5,9.1,4.7,9.5
		S4,9.9,3.7,9.6C3.3,9.4,3.2,8.9,3.5,8.6C3.8,8.2,4,7.9,4.4,7.5C5.1,6.8,6,6.2,6.9,5.8c1.9-0.9,4.2-0.9,6.2,0c1,0.4,1.8,1,2.5,1.8
		c0.3,0.3,0.6,0.6,0.9,1.1C16.8,8.9,16.7,9.4,16.3,9.6z"/>
</g>
</svg>
