<?xml version="1.0" encoding="utf-8"?>
<svg version="1.1" id="vizGraphics" shape-rendering="geometricPrecision"
	 xmlns="http://www.w3.org/2000/svg" xmlns:xlink="http://www.w3.org/1999/xlink" x="0px" y="0px" viewBox="0 0 20 20"
	 style="enable-background:new 0 0 20 20;" xml:space="preserve">
<g id="optical">
	<path class="fill" d="M10,0C4.5,0,0,4.5,0,10s4.5,10,10,10s10-4.5,10-10S15.5,0,10,0z M7.1,3.4c0-0.4,0.3-0.7,0.7-0.7
		c0.4,0,0.7,0.3,0.7,0.7v0.9C8.5,4.6,8.2,5,7.8,5C7.4,5,7.1,4.6,7.1,4.3V3.4z M7.1,6.9c0-0.4,0.3-0.7,0.7-0.7c0.4,0,0.7,0.3,0.7,0.7
		v0.9c0,0.4-0.3,0.7-0.7,0.7c-0.4,0-0.7-0.4-0.7-0.7V6.9z M8.4,16.6c0,0.4-0.3,0.7-0.7,0.7s-0.6-0.4-0.6-0.7v-0.9
		c0-0.4,0.3-0.7,0.7-0.7c0.4,0,0.7,0.3,0.7,0.7L8.4,16.6L8.4,16.6z M8.4,13.1c0,0.4-0.3,0.7-0.7,0.7s-0.6-0.4-0.6-0.7v-0.9
		c0-0.4,0.3-0.7,0.7-0.7c0.4,0,0.7,0.3,0.7,0.7L8.4,13.1L8.4,13.1z M16.1,10.6l-3.7,3.7c-0.2,0.2-0.4,0.3-0.6,0.3
		c-0.2,0-0.4-0.1-0.6-0.3c-0.4-0.4-0.4-0.9,0-1.2l2.2-2.2h-9c-0.5,0-0.9-0.4-0.9-0.9c0-0.5,0.4-0.9,0.9-0.9h8.9l-2.2-2.2
		c-0.4-0.4-0.4-0.9,0-1.2s0.9-0.4,1.2,0l3.7,3.7C16.4,9.7,16.4,10.3,16.1,10.6z"/>
</g>
</svg>
