<?xml version="1.0" encoding="utf-8"?>
<!-- Generator: Adobe Illustrator 16.0.4, SVG Export Plug-In . SVG Version: 6.00 Build 0)  -->
<!DOCTYPE svg PUBLIC "-//W3C//DTD SVG 1.1//EN" "http://www.w3.org/Graphics/SVG/1.1/DTD/svg11.dtd">
<svg version="1.1" id="Layer_1" xmlns="http://www.w3.org/2000/svg" xmlns:xlink="http://www.w3.org/1999/xlink" x="0px" y="0px"
	 width="405px" height="85px" viewBox="0 0 405 85" enable-background="new 0 0 405 85" xml:space="preserve">
<g>
	<rect x="0.517" y="-0.015" fill="none" width="405" height="85"/>
	<g>
		<g>
			<g>
				<path fill="#21409A" d="M252.351,63.34c0,5.052-4.096,9.146-9.147,9.146h-41.707c-5.051,0-9.146-4.094-9.146-9.146V21.632
					c0-5.051,4.096-9.146,9.146-9.146h41.707c5.052,0,9.147,4.096,9.147,9.146V63.34z"/>
				<path fill="#FFFFFF" d="M207.328,26.503h30.048v5.114l-21.418,21.097h22.055v5.755h-31.324v-5.114l21.352-21.099h-20.712V26.503
					z"/>
			</g>
			<g>
				<path fill="#21409A" d="M319.063,63.34c0,5.052-4.096,9.146-9.146,9.146h-41.708c-5.052,0-9.146-4.094-9.146-9.146V21.632
					c0-5.051,4.094-9.146,9.146-9.146h41.708c5.051,0,9.146,4.096,9.146,9.146V63.34z"/>
				<path fill="#FFFFFF" d="M305.686,42.486c0,9.587-7.034,16.621-16.623,16.621c-9.588,0-16.622-7.034-16.622-16.621
					c0-9.59,7.034-16.623,16.622-16.623C298.651,25.863,305.686,32.896,305.686,42.486z M298.973,42.486
					c0-6.075-4.155-10.55-9.91-10.55c-5.754,0-9.909,4.475-9.909,10.55c0,6.072,4.155,10.548,9.909,10.548
					C294.817,53.034,298.973,48.559,298.973,42.486z"/>
			</g>
			<g>
				<path fill="#21409A" d="M385.776,63.34c0,5.052-4.096,9.146-9.146,9.146h-41.708c-5.052,0-9.146-4.094-9.146-9.146V21.632
					c0-5.051,4.095-9.146,9.146-9.146h41.708c5.05,0,9.146,4.096,9.146,9.146V63.34z"/>
				<path fill="#FFFFFF" d="M372.398,42.486c0,9.587-7.034,16.621-16.622,16.621c-9.589,0-16.622-7.034-16.622-16.621
					c0-9.59,7.033-16.623,16.622-16.623C365.364,25.863,372.398,32.896,372.398,42.486z M365.687,42.486
					c0-6.075-4.156-10.55-9.91-10.55s-9.909,4.475-9.909,10.55c0,6.072,4.155,10.548,9.909,10.548S365.687,48.559,365.687,42.486z"
					/>
			</g>
		</g>
		<g>
			<g>
				<path fill="#21409A" d="M20.257,25.944h22.109c6.031,0,10.051,4.021,10.051,10.051c0,2.613-1.139,4.824-3.016,6.298
					c2.748,1.407,4.355,3.886,4.355,7.103c0,6.029-4.02,10.05-10.051,10.05H20.257V25.944z M42.366,39.68
					c2.01,0,3.35-1.34,3.35-3.35v-1.005c0-2.01-1.34-3.351-3.35-3.351h-15.41v7.705H42.366z M26.956,53.415h16.75
					c2.01,0,3.35-1.34,3.35-3.35V49.06c0-2.01-1.34-3.35-3.35-3.35h-16.75V53.415z"/>
				<path fill="#21409A" d="M62.466,25.944h6.699v27.471h20.1v6.03H62.466V25.944z"/>
				<path fill="#21409A" d="M120.421,43.365V25.944h6.699v17.421c0,9.647-6.834,16.75-16.08,16.75s-16.08-7.103-16.08-16.75V25.944
					h6.701v17.421c0,6.03,3.953,10.385,9.379,10.385C116.468,53.75,120.421,49.396,120.421,43.365z"/>
				<path fill="#21409A" d="M143.87,31.975v7.705h19.43v6.03h-19.43v7.705h26.131v6.03h-32.83V25.944h32.83v6.03H143.87z"/>
			</g>
		</g>
	</g>
</g>
</svg>
