<?xml version="1.0" encoding="utf-8"?>
<!-- Generator: Adobe Illustrator 16.0.4, SVG Export Plug-In . SVG Version: 6.00 Build 0)  -->
<!DOCTYPE svg PUBLIC "-//W3C//DTD SVG 1.1//EN" "http://www.w3.org/Graphics/SVG/1.1/DTD/svg11.dtd">
<svg version="1.1" id="Layer_1" xmlns="http://www.w3.org/2000/svg" xmlns:xlink="http://www.w3.org/1999/xlink" x="0px" y="0px"
	 width="392px" height="85px" viewBox="0 0 392 85" enable-background="new 0 0 392 85" xml:space="preserve">
<rect fill="none" width="392" height="85"/>
<g>
	<path fill="#FFFFFF" d="M42.401,42.308c1.877-1.474,3.016-3.685,3.016-6.298c0-6.03-4.02-10.051-10.051-10.051H13.257v33.502
		h23.448c6.031,0,10.051-4.021,10.051-10.049C46.756,46.195,45.149,43.715,42.401,42.308z M19.956,31.989h15.41
		c2.01,0,3.35,1.341,3.35,3.351v1.005c0,2.01-1.34,3.35-3.35,3.35v-0.001h-15.41V31.989z M40.056,50.08c0,2.01-1.34,3.35-3.35,3.35
		h-16.75v-7.705h16.75c2.01,0,3.35,1.34,3.35,3.353V50.08z"/>
	<polygon fill="#FFFFFF" points="62.165,25.959 55.466,25.959 55.466,59.461 82.265,59.461 82.265,53.43 62.165,53.43 	"/>
	<path fill="#FFFFFF" d="M113.421,43.381c0,6.031-3.953,10.385-9.381,10.385c-5.426,0-9.379-4.354-9.379-10.385V25.959H87.96v17.422
		c0,9.646,6.834,16.75,16.08,16.75s16.08-7.104,16.08-16.75V25.959h-6.699V43.381z"/>
	<polygon fill="#FFFFFF" points="130.171,59.461 163.001,59.461 163.001,53.43 136.87,53.43 136.87,45.725 156.3,45.725 
		156.3,39.695 136.87,39.695 136.87,31.99 136.87,31.989 163.001,31.989 163.001,25.959 130.171,25.959 	"/>
	<path fill="#FFFFFF" d="M236.204,12.501h-41.707c-5.05,0-9.146,4.095-9.146,9.146v41.708c0,5.053,4.095,9.146,9.146,9.146h41.707
		c5.051,0,9.147-4.094,9.147-9.146V21.647C245.352,16.597,241.256,12.501,236.204,12.501z M231.014,58.484h-31.324v-5.113
		l21.353-21.1H200.33v-5.753h30.047v5.114l-21.418,21.097h22.057v5.756H231.014z"/>
	<g>
		<path fill="#FFFFFF" d="M282.062,31.951c-5.754,0-9.908,4.475-9.908,10.55c0,6.073,4.154,10.548,9.908,10.548
			s9.91-4.475,9.91-10.548C291.973,36.426,287.818,31.951,282.062,31.951z"/>
		<path fill="#FFFFFF" d="M302.917,12.501h-41.708c-5.052,0-9.146,4.095-9.146,9.146v41.708c0,5.053,4.096,9.146,9.146,9.146h41.708
			c5.05,0,9.146-4.094,9.146-9.146V21.647C312.062,16.597,307.968,12.501,302.917,12.501z M282.062,59.123
			c-9.588,0-16.621-7.035-16.621-16.622c0-9.59,7.033-16.623,16.621-16.623s16.623,7.033,16.623,16.623
			C298.686,52.088,291.652,59.123,282.062,59.123z"/>
	</g>
	<g>
		<path fill="#FFFFFF" d="M348.777,31.951c-5.754,0-9.909,4.475-9.909,10.55c0,6.073,4.155,10.548,9.909,10.548
			s9.91-4.475,9.91-10.548C358.688,36.426,354.531,31.951,348.777,31.951z"/>
		<path fill="#FFFFFF" d="M369.63,12.501h-41.708c-5.051,0-9.146,4.095-9.146,9.146v41.708c0,5.053,4.095,9.146,9.146,9.146h41.708
			c5.05,0,9.146-4.094,9.146-9.146V21.647C378.775,16.597,374.68,12.501,369.63,12.501z M348.775,59.123
			c-9.588,0-16.621-7.035-16.621-16.622c0-9.59,7.031-16.623,16.621-16.623c9.589,0,16.623,7.033,16.623,16.623
			C365.398,52.088,358.364,59.123,348.775,59.123z"/>
	</g>
</g>
</svg>
