<?xml version="1.0" encoding="utf-8"?>
<!-- Generator: Adobe Illustrator 27.5.0, SVG Export Plug-In . SVG Version: 6.00 Build 0)  -->
<svg version="1.1" id="Layer_1" xmlns="http://www.w3.org/2000/svg" xmlns:xlink="http://www.w3.org/1999/xlink" x="0px" y="0px"
	 viewBox="0 0 405 85" style="enable-background:new 0 0 405 85;" xml:space="preserve">
<style type="text/css">
	.st0{fill:none;}
	.st1{fill:#FFFFFF;}
</style>
<g>
	<rect x="0.5" y="0" class="st0" width="405" height="85"/>
	<path d="M252.4,63.3c0,5.1-4.1,9.1-9.1,9.1h-41.7c-5.1,0-9.1-4.1-9.1-9.1V21.6c0-5.1,4.1-9.1,9.1-9.1h41.7c5.1,0,9.1,4.1,9.1,9.1
		V63.3z"/>
	<path class="st1" d="M207.3,26.5h30v5.1L216,52.7H238v5.8h-31.3v-5.1L228,32.3h-20.7L207.3,26.5L207.3,26.5z"/>
	<path d="M319.1,63.3c0,5.1-4.1,9.1-9.1,9.1h-41.7c-5.1,0-9.1-4.1-9.1-9.1V21.6c0-5.1,4.1-9.1,9.1-9.1h41.7c5.1,0,9.1,4.1,9.1,9.1
		V63.3z"/>
	<path class="st1" d="M305.7,42.5c0,9.6-7,16.6-16.6,16.6c-9.6,0-16.6-7-16.6-16.6c0-9.6,7-16.6,16.6-16.6
		C298.7,25.9,305.7,32.9,305.7,42.5z M299,42.5c0-6.1-4.2-10.5-9.9-10.5c-5.8,0-9.9,4.5-9.9,10.5c0,6.1,4.2,10.5,9.9,10.5
		S299,48.6,299,42.5z"/>
	<path d="M385.8,63.3c0,5.1-4.1,9.1-9.1,9.1h-41.7c-5.1,0-9.1-4.1-9.1-9.1V21.6c0-5.1,4.1-9.1,9.1-9.1h41.7c5,0,9.1,4.1,9.1,9.1
		V63.3z"/>
	<path class="st1" d="M372.4,42.5c0,9.6-7,16.6-16.6,16.6c-9.6,0-16.6-7-16.6-16.6c0-9.6,7-16.6,16.6-16.6
		C365.4,25.9,372.4,32.9,372.4,42.5z M365.7,42.5c0-6.1-4.2-10.5-9.9-10.5s-9.9,4.5-9.9,10.5c0,6.1,4.2,10.5,9.9,10.5
		S365.7,48.6,365.7,42.5z"/>
	<g>
		<g>
			<path d="M20.3,25.9h22.1c6,0,10.1,4,10.1,10.1c0,2.6-1.1,4.8-3,6.3c2.7,1.4,4.4,3.9,4.4,7.1c0,6-4,10-10.1,10H20.3V25.9z
				 M42.4,39.7c2,0,3.3-1.3,3.3-3.3v-1c0-2-1.3-3.4-3.3-3.4H27v7.7L42.4,39.7L42.4,39.7z M27,53.4h16.8c2,0,3.3-1.3,3.3-3.3v-1
				c0-2-1.3-3.3-3.3-3.3H27C27,45.7,27,53.4,27,53.4z"/>
			<path d="M62.5,25.9h6.7v27.5h20.1v6H62.5V25.9z"/>
			<path d="M120.4,43.4V25.9h6.7v17.4c0,9.6-6.8,16.8-16.1,16.8S95,53,95,43.4V25.9h6.7v17.4c0,6,4,10.4,9.4,10.4
				C116.5,53.8,120.4,49.4,120.4,43.4z"/>
			<path d="M143.9,32v7.7h19.4v6h-19.4v7.7H170v6h-32.8V25.9H170v6L143.9,32L143.9,32z"/>
		</g>
	</g>
</g>
</svg>
